<svg xmlns="http://www.w3.org/2000/svg" version="1.1" xmlns:xlink="http://www.w3.org/1999/xlink"
  width="469.800000" height="49.800000" viewBox="0 -830 7830 830">
  <g id="p1">
    <path transform="translate(-30, -35)" fill="#000000"
      d="M90 35H550C583 35 610 8 610 -25V-735C610 -768 583 -795 550 -795H90C57 -795 30 -768 30 -735V-25C30 8 57 35 90 35ZM60 -25V-735C60 -752 73 -765 90 -765H550C567 -765 580 -752 580 -735V-25C580 -8 567 5 550 5H90C73 5 60 -8 60 -25ZM86 -380C86 -251 191 -146 320 -146C449 -146 554 -251 554 -380C554 -509 449 -614 320 -614C191 -614 86 -509 86 -380ZM106 -380C106 -498 202 -594 320 -594C438 -594 534 -498 534 -380C534 -262 438 -166 320 -166C202 -166 106 -262 106 -380ZM116 -380C116 -267 207 -176 320 -176C433 -176 524 -267 524 -380C524 -493 433 -584 320 -584C207 -584 116 -493 116 -380ZM122 -353L149 -344L134 -375H157L164 -368C165 -353 168 -338 174 -324L154 -316L128 -326ZM122 -407L128 -434L154 -444L174 -436C168 -422 165 -407 164 -392L157 -385H134L149 -416ZM145 -284L153 -305L174 -314C183 -308 177 -312 192 -288L167 -281L197 -263L180 -246L171 -248C161 -259 152 -271 145 -284ZM145 -476C152 -488 160 -500 169 -511L180 -514L197 -497L167 -479L192 -472C187 -464 183 -457 179 -449L174 -446L153 -455ZM168 -380C168 -464 236 -532 320 -532C404 -532 472 -464 472 -380C472 -296 404 -228 320 -228C236 -228 168 -296 168 -380ZM178 -380C178 -301 241 -238 320 -238C399 -238 462 -301 462 -380C462 -459 399 -522 320 -522C241 -522 178 -459 178 -380ZM181 -352L198 -378H258C258 -375 258 -372 259 -370L222 -363L223 -358L260 -366C260 -363 261 -361 262 -358L206 -335ZM181 -408L206 -425L262 -402C261 -399 260 -397 260 -394L223 -402L222 -397L259 -390C258 -388 258 -385 258 -382H198ZM186 -240L203 -257L221 -227L228 -252C236 -247 243 -243 251 -239L254 -234L245 -213L224 -205C212 -212 200 -220 189 -229ZM186 -520L188 -529C199 -539 211 -548 224 -555L245 -547L254 -526C248 -517 252 -523 228 -508L221 -533L203 -503ZM202 -301L208 -332L264 -354C265 -352 266 -350 268 -348L235 -327L238 -323L270 -344C272 -342 273 -340 274 -338L232 -295ZM202 -459L232 -465L274 -422C273 -420 272 -418 270 -416L238 -437L235 -433L268 -412C266 -410 265 -408 264 -406L208 -428ZM235 -292L278 -334C280 -333 282 -332 284 -330L263 -298L267 -295L288 -328C290 -326 292 -325 294 -324L272 -268L241 -262ZM235 -468L241 -498L272 -492L294 -436C292 -435 290 -434 288 -432L267 -465L263 -462L284 -430C282 -428 280 -427 278 -426ZM256 -214L264 -234C278 -228 293 -225 308 -224L315 -217V-194L284 -209L293 -182L266 -188ZM256 -546L266 -572L293 -578L284 -551L315 -566V-543L308 -536C293 -535 278 -532 264 -526ZM263 -380C263 -411 289 -437 320 -437C351 -437 377 -411 377 -380C377 -349 351 -323 320 -323C289 -323 263 -349 263 -380ZM272 -375L280 -371L306 -380C306 -383 307 -386 309 -389L292 -410L285 -411C277 -403 272 -392 272 -380ZM275 -266L298 -322C301 -321 303 -320 306 -320L298 -283L303 -282L310 -319C312 -318 315 -318 318 -318V-258L292 -241ZM275 -494L292 -519L318 -502V-442C315 -442 312 -442 310 -441L303 -478L298 -477L306 -440C303 -440 301 -439 298 -438ZM279 -356C286 -345 296 -336 310 -333L315 -339V-367C312 -368 310 -370 309 -371L283 -363ZM300 -416L316 -393C317 -394 319 -394 320 -394C321 -394 323 -394 324 -393L340 -416L339 -424C333 -427 327 -428 320 -428C313 -428 307 -427 301 -424ZM315 -380C315 -377 317 -375 320 -375C323 -375 325 -377 325 -380C325 -383 323 -385 320 -385C317 -385 315 -383 315 -380ZM322 -258V-318C325 -318 328 -318 330 -319L337 -282L342 -283L334 -320C337 -320 339 -321 342 -322L365 -266L348 -241ZM322 -442V-502L348 -519L365 -494L342 -438C339 -439 337 -440 334 -440L342 -477L337 -478L330 -441C328 -442 325 -442 322 -442ZM325 -194V-217L332 -224C347 -225 362 -228 376 -234L384 -214L374 -188L347 -182L356 -209ZM325 -339L330 -333C344 -336 354 -345 361 -356L357 -363L331 -371C330 -370 328 -368 325 -367ZM325 -543V-566L356 -551L347 -578L374 -572L384 -546L376 -526C362 -532 347 -535 332 -536ZM331 -389C333 -386 334 -383 334 -380L360 -371L368 -375V-380C368 -392 363 -403 355 -411L348 -410ZM346 -324C348 -325 350 -326 352 -328L373 -295L377 -298L356 -330C358 -332 360 -333 362 -334L405 -292L399 -262L368 -268ZM346 -436L368 -492L399 -498L405 -468L362 -426C360 -427 358 -428 356 -430L377 -462L373 -465L352 -432C350 -434 348 -435 346 -436ZM366 -338C367 -340 368 -342 370 -344L402 -323L405 -327L372 -348C374 -350 375 -352 376 -354L432 -332L438 -301L408 -295ZM366 -422L408 -465L438 -459L432 -428L376 -406C375 -408 374 -410 372 -412L405 -433L402 -437L370 -416C368 -418 367 -420 366 -422ZM378 -358C379 -361 380 -363 380 -366L417 -358L418 -363L381 -370C382 -372 382 -375 382 -378H442L459 -352L434 -335ZM378 -402L434 -425L459 -408L442 -382H382C382 -385 382 -388 381 -390L418 -397L417 -402L380 -394C380 -397 379 -399 378 -402ZM386 -234C392 -243 388 -237 412 -252L419 -227L437 -257L454 -240L452 -231C441 -221 429 -212 416 -205L395 -213ZM386 -526L395 -547L416 -555C428 -548 440 -540 451 -531L454 -520L437 -503L419 -533L412 -508C404 -513 397 -517 389 -521ZM443 -263L473 -281L448 -288C453 -296 457 -303 461 -311L466 -314L487 -305L495 -284C488 -272 480 -260 471 -249L460 -246ZM443 -497L460 -514L469 -512C479 -501 488 -489 495 -476L487 -455L466 -446C457 -452 463 -448 448 -472L473 -479ZM466 -324C472 -338 475 -353 476 -368L483 -375H506L491 -344L518 -353L512 -326L486 -316ZM466 -436L486 -444L512 -434L518 -407L491 -416L506 -385H483L476 -392C475 -407 472 -422 466 -436Z"></path>
  </g>
</svg>