<svg xmlns="http://www.w3.org/2000/svg" version="1.1" xmlns:xlink="http://www.w3.org/1999/xlink"
  width="469.800000" height="49.800000" viewBox="0 -830 7830 830">
  <g id="s1">
    <path transform="translate(-30, -35)" fill="#000000"
      d="M90 35H550C583 35 610 8 610 -25V-735C610 -768 583 -795 550 -795H90C57 -795 30 -768 30 -735V-25C30 8 57 35 90 35ZM60 -25V-735C60 -752 73 -765 90 -765H550C567 -765 580 -752 580 -735V-25C580 -8 567 5 550 5H90C73 5 60 -8 60 -25ZM103 -164C103 -160 104 -154 105 -151C152 -169 200 -169 214 -169C221 -169 231 -168 240 -166C247 -165 255 -164 260 -164C278 -164 295 -177 306 -177C313 -177 321 -175 329 -174C338 -172 347 -170 356 -170C379 -170 371 -172 434 -172C460 -172 491 -167 511 -163C522 -161 530 -160 533 -160C533 -160 536 -163 536 -178C536 -248 471 -291 436 -291C397 -291 389 -282 381 -282C373 -282 367 -320 332 -320C291 -320 281 -284 274 -284C266 -284 262 -306 244 -306C242 -306 238 -305 238 -304C238 -299 262 -306 262 -276C262 -267 259 -257 257 -248C254 -239 251 -229 251 -219C251 -207 256 -193 268 -193C277 -193 284 -202 291 -210C298 -220 305 -229 316 -229C326 -229 342 -218 342 -208C342 -198 337 -185 325 -185C321 -185 317 -186 312 -186C300 -186 290 -182 281 -178C273 -175 265 -172 257 -172C240 -172 235 -184 235 -208L236 -244C236 -269 226 -284 222 -284C220 -284 220 -282 220 -278C220 -276 226 -271 226 -269C226 -266 223 -266 221 -266C216 -266 206 -272 191 -272C155 -272 103 -227 103 -164ZM110 -368C110 -365 137 -357 157 -343C164 -337 182 -322 187 -322C189 -322 189 -323 189 -324C189 -330 156 -368 118 -370C114 -370 110 -370 110 -368ZM117 -170C117 -175 126 -183 146 -183C153 -183 158 -182 158 -179C158 -173 126 -166 122 -166C118 -166 117 -168 117 -170ZM121 -412C121 -405 130 -419 210 -340C219 -331 219 -329 221 -329C222 -329 223 -330 223 -332C223 -334 221 -338 219 -344C190 -399 131 -413 125 -413C122 -413 121 -413 121 -412ZM122 -322C122 -313 166 -307 171 -307C173 -307 173 -307 173 -308C173 -310 146 -324 133 -324C125 -324 122 -324 122 -322ZM124 -197C124 -202 137 -206 149 -206C155 -206 161 -204 161 -201C161 -198 145 -192 134 -192C130 -192 124 -193 124 -197ZM131 -475C131 -467 164 -435 191 -417C208 -405 238 -402 238 -395C238 -394 238 -393 235 -393C227 -393 202 -405 195 -405C192 -405 192 -404 192 -402C192 -394 235 -387 235 -387C238 -387 242 -382 242 -380C242 -378 240 -379 237 -379C235 -379 221 -384 214 -384C212 -384 211 -383 211 -382C211 -375 247 -373 247 -367C247 -365 245 -365 244 -365C240 -365 232 -370 227 -370C226 -370 224 -369 224 -368C224 -361 250 -356 255 -354C263 -351 268 -335 286 -335C298 -335 307 -341 315 -341C325 -341 337 -334 345 -334C374 -334 385 -359 398 -365C413 -371 419 -362 437 -378C448 -389 467 -384 467 -393C467 -395 453 -392 448 -392C446 -392 448 -399 451 -399C457 -399 481 -402 481 -407C481 -409 480 -410 476 -410C472 -410 465 -408 457 -408C450 -408 453 -413 459 -413C461 -413 492 -416 492 -420C492 -423 489 -424 486 -424C478 -424 467 -420 462 -420C460 -420 459 -421 459 -421C459 -429 477 -432 493 -434C506 -436 518 -438 518 -442C518 -445 515 -445 513 -445C511 -445 493 -440 485 -440C481 -440 478 -442 478 -443C478 -447 488 -449 499 -451C511 -453 524 -456 524 -461C524 -462 523 -462 521 -462C511 -462 491 -456 484 -456C475 -456 476 -463 482 -464C517 -470 529 -473 529 -478C529 -479 527 -481 524 -481C520 -481 512 -479 503 -477C494 -475 485 -473 480 -473C472 -473 472 -478 480 -481C515 -492 532 -489 532 -497C532 -498 530 -500 527 -500C521 -500 510 -497 499 -494C487 -491 476 -488 470 -488C467 -488 467 -491 467 -493C467 -496 482 -500 498 -503C515 -507 532 -511 532 -515C532 -518 529 -519 524 -519C521 -519 507 -515 495 -512C485 -509 476 -507 474 -507C472 -507 470 -509 470 -510C470 -515 487 -523 502 -529C513 -534 522 -538 522 -540C522 -543 520 -544 516 -544C504 -544 470 -521 465 -521C462 -521 459 -523 462 -526C467 -530 479 -537 492 -543C506 -551 520 -558 522 -562C524 -565 524 -567 520 -567C510 -567 490 -554 475 -544C466 -538 459 -534 457 -534C455 -534 454 -535 454 -537C454 -543 458 -539 521 -585C525 -588 527 -592 527 -594C527 -597 527 -597 525 -597C520 -597 501 -583 483 -570C468 -558 453 -547 449 -547C448 -547 446 -546 446 -550C446 -552 459 -563 475 -576C498 -595 526 -618 526 -626C526 -629 525 -629 524 -629C519 -629 503 -615 486 -599C467 -581 445 -562 437 -562C434 -562 434 -563 434 -564C434 -566 443 -574 454 -583C474 -600 503 -625 503 -638C503 -641 502 -642 501 -642C494 -642 479 -621 466 -607C457 -598 429 -572 424 -572C424 -572 422 -572 422 -575C422 -577 428 -584 436 -592C447 -604 461 -619 461 -626C461 -628 460 -630 459 -630C454 -630 444 -616 435 -604C429 -595 424 -588 422 -588C420 -588 420 -588 420 -591C420 -594 450 -629 450 -644C450 -646 449 -648 447 -648C445 -648 439 -638 433 -627C424 -612 414 -594 409 -594C406 -594 406 -594 406 -597C406 -600 418 -614 432 -642C439 -655 442 -664 442 -667C442 -670 441 -671 439 -671C437 -671 427 -654 417 -636C407 -619 398 -601 395 -601C394 -601 392 -602 392 -602C392 -606 397 -617 403 -629C411 -647 421 -669 421 -681C421 -683 421 -685 419 -685C414 -685 403 -660 394 -637C386 -618 379 -600 376 -600C374 -600 373 -602 373 -603C373 -604 376 -612 379 -622C385 -638 393 -660 395 -672C395 -675 395 -688 391 -688C387 -688 379 -665 372 -642C365 -621 358 -600 355 -600C354 -600 352 -600 352 -602C352 -608 355 -617 357 -626C360 -635 362 -643 362 -648C362 -650 361 -655 359 -655C350 -655 343 -612 340 -603C339 -599 333 -596 333 -605L334 -632C334 -653 331 -666 326 -666C324 -666 324 -646 324 -633C324 -613 321 -602 319 -602C316 -602 315 -619 314 -637C313 -660 311 -686 305 -686C303 -686 302 -681 302 -673C302 -666 303 -657 303 -647C304 -636 305 -624 305 -614C305 -605 305 -598 302 -598C297 -598 297 -605 297 -613C297 -646 290 -689 284 -689C281 -689 281 -677 281 -672C281 -662 284 -644 286 -629C288 -617 289 -608 289 -604C289 -602 289 -593 285 -593C283 -593 281 -606 278 -622C273 -649 267 -683 259 -683C257 -683 257 -678 257 -672C257 -649 264 -626 270 -608C273 -597 276 -588 276 -583C276 -580 275 -578 272 -578C268 -578 263 -601 257 -624C251 -649 245 -675 240 -675C238 -675 237 -672 237 -669C237 -653 249 -614 256 -589C260 -576 263 -566 263 -564C263 -561 259 -563 255 -569C254 -569 229 -630 224 -630C223 -630 221 -629 221 -627C221 -623 228 -609 234 -595C241 -580 247 -566 247 -562C247 -559 245 -558 244 -558C243 -558 237 -570 231 -583C223 -600 214 -620 211 -620C210 -620 209 -619 209 -615C209 -609 217 -595 223 -584C228 -575 232 -568 232 -565C232 -564 232 -563 230 -563C226 -563 217 -579 207 -595C197 -612 187 -630 182 -630C180 -630 179 -629 179 -627C179 -622 192 -603 205 -585C217 -568 229 -551 229 -547C229 -546 228 -546 227 -546C222 -546 204 -572 189 -595C178 -611 168 -626 166 -626C165 -626 163 -626 163 -623C163 -611 183 -585 199 -564C209 -550 218 -539 218 -535C218 -533 217 -533 216 -533C208 -533 188 -563 171 -590C159 -610 147 -627 144 -627C142 -627 140 -626 140 -624C140 -615 146 -602 184 -550C191 -541 209 -525 209 -520C209 -519 208 -519 207 -519C200 -519 184 -540 171 -557C162 -568 154 -578 152 -578C149 -578 148 -572 151 -567C155 -559 168 -544 181 -529C195 -513 208 -497 208 -493C208 -491 207 -491 205 -491C199 -491 185 -510 172 -526C162 -539 153 -550 150 -550C149 -550 149 -550 149 -548C149 -535 171 -511 186 -495C193 -487 199 -481 199 -479C199 -479 199 -477 198 -477C190 -477 175 -494 163 -508C155 -518 148 -526 146 -526C144 -526 144 -524 144 -523C144 -515 160 -497 174 -482C182 -472 190 -463 190 -461C190 -460 189 -459 188 -459C181 -459 168 -474 157 -486C149 -495 142 -502 140 -502C138 -502 136 -496 143 -487C159 -463 185 -451 185 -445C185 -443 184 -442 182 -442C176 -442 162 -455 151 -465C143 -473 136 -479 134 -479C131 -479 131 -478 131 -475ZM135 -222C135 -224 143 -228 154 -228C165 -228 171 -224 171 -222C171 -219 163 -217 154 -217C147 -217 135 -219 135 -222ZM151 -242C151 -245 157 -247 164 -247C172 -247 181 -244 181 -239C181 -235 178 -235 174 -235C166 -235 151 -239 151 -242ZM167 -257C167 -261 172 -262 177 -262C187 -262 193 -259 193 -255C193 -254 190 -252 187 -252C185 -252 167 -253 167 -257ZM170 -181C170 -185 200 -186 223 -186C226 -186 231 -185 231 -182C231 -179 221 -178 217 -178C205 -178 192 -177 184 -177C173 -177 170 -178 170 -181ZM173 -201C173 -204 177 -206 186 -206C187 -206 227 -205 227 -198C227 -196 223 -194 214 -196C206 -197 199 -197 194 -197C179 -197 173 -196 173 -201ZM184 -218C184 -222 189 -223 197 -223C209 -223 226 -220 226 -214C226 -212 221 -212 216 -212C203 -212 184 -215 184 -218ZM191 -306C191 -303 212 -292 224 -292C230 -292 231 -293 231 -299C231 -310 203 -334 200 -334C199 -334 198 -334 198 -333C198 -329 216 -312 216 -305C216 -303 216 -303 214 -303C211 -303 199 -307 194 -307C192 -307 191 -307 191 -306ZM192 -233C192 -235 193 -239 200 -239C215 -239 226 -231 226 -228C226 -227 223 -227 221 -227C220 -227 192 -231 192 -233ZM199 -249C199 -251 202 -252 206 -252C216 -252 229 -245 229 -242C229 -241 228 -240 227 -240C221 -240 199 -244 199 -249ZM205 -435C205 -460 224 -465 232 -465C248 -465 261 -452 261 -437C261 -433 260 -413 232 -413C209 -413 205 -430 205 -435ZM207 -261C207 -264 211 -263 213 -263C216 -263 228 -260 228 -255C228 -254 227 -253 224 -253C222 -253 207 -256 207 -261ZM221 -437C221 -433 226 -429 232 -429C240 -429 243 -433 243 -437C243 -443 238 -450 233 -450C226 -450 221 -442 221 -437ZM223 -83C223 -81 224 -81 227 -81C231 -81 240 -84 252 -84C253 -84 254 -84 254 -83C254 -81 234 -64 234 -62C234 -61 235 -59 237 -59C247 -59 276 -83 279 -83C282 -84 286 -79 291 -79C292 -79 295 -81 295 -82C295 -85 292 -89 286 -94C287 -97 292 -124 292 -131C292 -135 292 -138 291 -140C289 -143 278 -148 274 -148C271 -148 271 -147 271 -146C271 -142 274 -135 274 -122C274 -97 271 -96 262 -95C233 -92 223 -87 223 -83ZM224 -505C224 -524 240 -535 257 -535C270 -535 284 -522 284 -505C284 -492 271 -478 255 -478C241 -478 224 -485 224 -505ZM235 -289C235 -284 242 -272 247 -272C248 -272 250 -273 250 -275C250 -281 243 -291 237 -291C235 -291 235 -290 235 -289ZM243 -505C243 -499 250 -496 255 -496C261 -496 268 -500 268 -505C268 -510 261 -518 256 -518C250 -518 243 -510 243 -505ZM258 -220C258 -229 262 -235 266 -235C269 -235 274 -233 274 -229C274 -223 264 -213 262 -213C260 -213 258 -215 258 -220ZM259 -380C259 -392 268 -402 284 -402C308 -402 311 -384 311 -375C311 -365 305 -353 289 -353C270 -353 259 -368 259 -380ZM268 -206C268 -211 278 -224 283 -224C285 -224 286 -224 286 -219C286 -212 276 -202 272 -202C271 -202 268 -203 268 -206ZM269 -246C269 -252 275 -256 281 -256C285 -256 289 -254 289 -248C289 -245 284 -238 281 -238C278 -238 269 -241 269 -246ZM273 -440C273 -455 283 -470 299 -470C311 -470 333 -464 333 -441C333 -434 326 -414 306 -414C282 -414 273 -426 273 -440ZM275 -377C275 -371 281 -368 286 -368C292 -368 296 -371 296 -376C296 -382 291 -388 285 -388C281 -388 275 -383 275 -377ZM281 -556C281 -579 300 -585 312 -585C326 -585 336 -572 336 -563C336 -552 321 -538 304 -538C297 -538 281 -543 281 -556ZM286 -265C286 -268 290 -273 295 -273C300 -273 302 -269 302 -266C302 -262 300 -257 295 -257C289 -257 286 -261 286 -265ZM286 -288C286 -294 293 -297 297 -297C301 -297 303 -296 303 -293C303 -286 298 -283 293 -283C290 -283 286 -285 286 -288ZM290 -235C290 -239 295 -244 297 -244C302 -244 304 -241 304 -238C304 -234 302 -228 297 -228C292 -228 290 -232 290 -235ZM292 -440C292 -435 298 -432 303 -432C308 -432 313 -434 313 -440C313 -445 308 -452 302 -452C296 -452 292 -445 292 -440ZM295 -70C295 -67 296 -67 298 -67C305 -67 324 -78 327 -78C333 -78 318 -64 318 -62C318 -60 319 -59 320 -59C328 -59 343 -75 346 -75C355 -75 374 -71 379 -71C383 -71 384 -71 384 -73C384 -74 381 -76 381 -77C360 -89 348 -76 348 -108C348 -117 350 -130 350 -139C350 -146 336 -149 333 -149C331 -149 328 -150 329 -146C331 -135 333 -122 333 -113C333 -85 295 -80 295 -70ZM297 -562C297 -556 302 -551 308 -551C314 -551 320 -556 320 -563C320 -569 316 -572 311 -572C304 -572 297 -568 297 -562ZM302 -305C302 -308 308 -311 311 -311C315 -311 317 -308 317 -304C317 -299 313 -297 311 -298C306 -298 302 -302 302 -305ZM303 -252C303 -256 307 -260 313 -260C316 -260 320 -256 320 -251C320 -247 316 -244 312 -244C307 -244 303 -246 303 -252ZM303 -280C303 -283 307 -287 311 -287C318 -287 318 -282 318 -280C318 -275 315 -272 311 -272C310 -272 303 -273 303 -280ZM305 -504C305 -526 333 -531 340 -531C346 -531 363 -527 363 -506C363 -478 337 -475 334 -475C319 -475 305 -488 305 -504ZM317 -266V-267C317 -269 320 -275 325 -275C331 -275 334 -271 334 -266C334 -261 327 -259 325 -259C323 -259 317 -262 317 -266ZM318 -292C318 -295 321 -301 326 -301C331 -301 334 -297 334 -294C334 -290 331 -286 324 -286C320 -286 318 -289 318 -292ZM319 -311C319 -313 323 -316 326 -316C329 -316 333 -313 333 -311C333 -307 329 -306 326 -306C322 -306 319 -308 319 -311ZM323 -241C323 -243 353 -282 363 -282C365 -282 369 -281 369 -277C369 -273 362 -266 362 -263C362 -261 364 -259 366 -259C368 -259 395 -281 411 -281C412 -281 416 -281 416 -278C416 -272 381 -262 381 -253C381 -252 382 -251 383 -251C390 -251 412 -267 420 -267C422 -267 424 -266 424 -264C424 -260 385 -247 385 -241C385 -240 387 -240 388 -240C394 -240 417 -251 427 -251C429 -251 432 -251 432 -248C432 -243 421 -242 395 -232C389 -230 387 -227 387 -225C387 -225 388 -224 389 -224C399 -225 426 -235 439 -235C443 -235 445 -234 445 -232C445 -229 445 -227 433 -226C412 -223 385 -214 385 -211C385 -209 387 -209 388 -209C394 -209 403 -211 412 -214C424 -217 437 -220 447 -220C455 -220 458 -219 458 -214C458 -210 452 -209 446 -209C434 -209 380 -200 380 -192C380 -191 382 -191 384 -191C389 -191 398 -193 409 -195C422 -197 438 -200 449 -200C455 -200 469 -199 469 -191C469 -189 465 -187 454 -187C425 -187 403 -184 385 -181C374 -179 365 -178 357 -178C354 -178 346 -179 342 -180C348 -186 352 -197 352 -205C352 -233 323 -233 323 -241ZM324 -502C324 -495 329 -492 336 -492C341 -492 347 -496 347 -502C347 -507 342 -513 336 -513C329 -513 324 -507 324 -502ZM325 -371C325 -390 336 -400 348 -400C356 -400 378 -396 378 -378C378 -350 354 -348 348 -348C337 -348 325 -355 325 -371ZM333 -280C333 -284 338 -289 341 -289C342 -289 350 -289 350 -283C350 -278 345 -273 341 -273C335 -273 333 -276 333 -280ZM337 -305C337 -309 341 -313 344 -313C348 -313 353 -310 353 -307C353 -302 348 -299 343 -299C340 -299 337 -301 337 -305ZM342 -373C342 -366 346 -361 352 -361C357 -361 362 -367 362 -374C362 -379 358 -382 353 -382C348 -382 342 -380 342 -373ZM343 -449C343 -461 354 -474 373 -474C387 -474 397 -461 397 -449C397 -432 383 -424 370 -424C357 -424 343 -433 343 -449ZM352 -294C352 -297 354 -299 358 -299C360 -299 363 -297 363 -294C363 -290 359 -288 357 -288C354 -288 352 -289 352 -294ZM354 -562C354 -581 367 -586 382 -586C399 -586 405 -576 405 -564C405 -543 383 -538 378 -538C365 -538 354 -546 354 -562ZM361 -447C361 -437 369 -437 370 -437C377 -437 382 -441 382 -446C382 -449 380 -459 371 -459C366 -459 361 -455 361 -447ZM369 -561C369 -557 373 -551 379 -551C385 -551 390 -557 390 -563C390 -569 384 -572 380 -572C373 -572 369 -566 369 -561ZM386 -400C386 -413 397 -426 410 -426C425 -426 437 -413 437 -401C437 -392 424 -380 411 -380C404 -380 386 -389 386 -400ZM391 -516C391 -526 402 -541 421 -541C440 -541 445 -525 445 -516C445 -500 429 -492 417 -492C397 -492 391 -506 391 -516ZM395 -308C400 -308 417 -325 466 -356C472 -360 481 -364 489 -368C497 -372 505 -376 510 -379C513 -380 513 -387 506 -387C484 -387 438 -358 397 -314C392 -310 394 -308 395 -308ZM402 -401C402 -397 408 -394 412 -394C415 -394 421 -398 421 -403C421 -409 418 -413 411 -413C403 -413 402 -403 402 -401ZM410 -515C410 -508 415 -505 419 -505C427 -505 430 -510 430 -516C430 -521 427 -526 421 -526C413 -526 410 -522 410 -515ZM412 -457C412 -477 432 -482 440 -482C457 -482 464 -467 464 -456C464 -437 447 -433 436 -433C421 -433 412 -445 412 -457ZM427 -455C427 -449 434 -445 440 -445C446 -445 448 -451 448 -456C448 -460 447 -467 440 -467C433 -467 427 -461 427 -455ZM432 -270C432 -273 449 -277 455 -277C461 -277 464 -274 464 -273C464 -268 442 -266 437 -266C434 -266 432 -268 432 -270ZM433 -315C432 -311 439 -315 441 -316C499 -340 511 -345 511 -349C511 -351 507 -352 502 -352C480 -352 433 -316 433 -315ZM449 -252C449 -257 468 -261 473 -261C479 -261 484 -257 484 -254C484 -251 482 -250 478 -250L455 -249C451 -249 449 -250 449 -252ZM452 -305C452 -304 454 -304 455 -304C459 -304 469 -308 496 -310C504 -310 507 -310 507 -312V-313C505 -317 501 -319 494 -319C479 -319 452 -307 452 -305ZM463 -233C463 -238 471 -239 483 -239C497 -239 500 -234 500 -232C500 -229 496 -229 490 -229C480 -229 463 -229 463 -233ZM474 -213C473 -218 476 -219 488 -219C510 -219 515 -213 515 -209C515 -207 514 -205 509 -205C506 -205 474 -209 474 -213ZM482 -191C482 -193 486 -194 491 -194C497 -194 505 -193 509 -192C515 -191 520 -186 520 -182C520 -180 518 -179 515 -179H514C494 -181 482 -186 482 -191Z"></path>
  </g>
</svg>