<svg xmlns="http://www.w3.org/2000/svg" version="1.1" xmlns:xlink="http://www.w3.org/1999/xlink"
    width="469.800000" height="49.800000" viewBox="0 -830 7830 830">
    <g id="z1">
        <path transform="translate(-30, -35)" fill="#000000"
            d="M90 35H550C583 35 610 8 610 -25V-735C610 -768 583 -795 550 -795H90C57 -795 30 -768 30 -735V-25C30 8 57 35 90 35ZM60 -25V-735C60 -752 73 -765 90 -765H550C567 -765 580 -752 580 -735V-25C580 -8 567 5 550 5H90C73 5 60 -8 60 -25ZM118 -241C124 -238 129 -238 134 -238C161 -238 190 -252 227 -282C251 -249 276 -213 276 -205C276 -179 291 -127 307 -127C324 -127 326 -154 326 -173C326 -180 324 -192 321 -207C317 -232 311 -264 311 -295C311 -304 311 -311 312 -319C312 -328 313 -337 313 -349C316 -349 319 -349 321 -350C334 -332 346 -315 357 -298C381 -261 401 -231 423 -231C443 -231 459 -250 470 -250C484 -250 494 -237 522 -234C507 -257 481 -266 451 -278C415 -292 372 -308 337 -352C344 -355 357 -356 357 -356C361 -353 366 -349 372 -349C379 -349 381 -359 381 -365C381 -374 387 -381 394 -390C402 -400 411 -412 418 -431C426 -432 440 -434 440 -444C440 -461 411 -491 399 -491C391 -491 372 -487 351 -483L314 -476C314 -482 316 -492 316 -499C329 -503 341 -506 352 -508C370 -512 382 -514 382 -521C382 -527 365 -539 352 -539C342 -539 344 -528 317 -520C322 -581 356 -564 356 -582C356 -597 346 -600 324 -606C307 -610 285 -616 254 -630C254 -602 263 -590 271 -578C280 -565 290 -551 290 -515V-512C276 -507 264 -505 252 -504L232 -501C236 -492 242 -487 257 -487C270 -487 279 -491 292 -493C292 -487 292 -477 293 -471C266 -463 233 -455 204 -449C195 -453 185 -459 178 -459C175 -459 172 -458 170 -454C175 -443 195 -419 212 -399C225 -384 236 -371 236 -369C236 -366 232 -364 234 -362C240 -355 246 -351 253 -350C243 -330 233 -317 221 -307L212 -314L216 -301C188 -277 152 -258 118 -241ZM218 -435C240 -445 266 -453 293 -458C293 -446 294 -435 294 -425C286 -422 277 -422 269 -421C258 -419 247 -418 238 -413C235 -418 224 -429 218 -435ZM236 -290C254 -312 271 -335 279 -349C285 -349 290 -348 295 -348C294 -331 292 -248 280 -248C272 -248 261 -261 250 -274C246 -279 241 -285 236 -290ZM249 -398C258 -403 274 -405 294 -406C294 -396 295 -383 295 -370C283 -371 275 -370 266 -372C257 -381 253 -389 249 -398ZM312 -391C312 -397 312 -403 313 -408C320 -409 329 -411 337 -413C346 -415 354 -417 359 -417C365 -417 366 -415 370 -413C363 -401 355 -384 350 -377C341 -375 326 -372 313 -372C312 -379 312 -386 312 -391ZM312 -427C313 -439 312 -449 314 -461C330 -465 350 -468 366 -468C380 -468 390 -466 390 -460C390 -449 382 -436 377 -427C368 -433 364 -441 354 -441C332 -441 339 -430 312 -427Z"></path>
    </g>
</svg>