<svg xmlns="http://www.w3.org/2000/svg" version="1.1" xmlns:xlink="http://www.w3.org/1999/xlink"
  width="469.800000" height="49.800000" viewBox="0 -830 7830 830">
  <g id="m2">
    <path transform="translate(-30, -35)" fill="#000000"
      d="M90 35H550C583 35 610 8 610 -25V-735C610 -768 583 -795 550 -795H90C57 -795 30 -768 30 -735V-25C30 8 57 35 90 35ZM60 -25V-735C60 -752 73 -765 90 -765H550C567 -765 580 -752 580 -735V-25C580 -8 567 5 550 5H90C73 5 60 -8 60 -25ZM129 -488C140 -476 163 -472 179 -472C199 -472 228 -481 260 -491C299 -504 343 -518 380 -518C410 -518 435 -508 454 -500C465 -496 474 -492 480 -492C496 -492 511 -506 511 -518C511 -541 453 -562 409 -562C386 -562 349 -548 310 -534C268 -519 224 -503 194 -503C182 -503 174 -505 160 -506C147 -502 131 -494 129 -488ZM158 -153C158 -138 186 -130 209 -130H221C225 -120 235 -81 246 -81C256 -81 255 -99 256 -108C266 -105 275 -100 288 -100C294 -100 298 -108 307 -111C323 -101 384 -75 403 -75C412 -75 423 -79 433 -83C440 -85 447 -88 452 -88C478 -88 498 -100 498 -123C498 -168 414 -182 388 -184C387 -193 386 -209 386 -218C386 -265 400 -288 400 -298C400 -308 392 -312 379 -312C368 -312 352 -308 331 -302C308 -296 279 -288 242 -282C238 -265 238 -241 238 -227C238 -199 246 -173 253 -169C260 -176 262 -183 266 -189C271 -191 277 -194 282 -194L281 -165C269 -161 259 -157 243 -157C237 -168 234 -179 231 -190C227 -206 224 -220 206 -223C203 -220 202 -219 202 -217C202 -210 205 -197 208 -182C210 -174 212 -165 213 -156H209C200 -156 192 -157 184 -158C176 -159 168 -160 159 -160C159 -157 158 -155 158 -153ZM162 -318C176 -301 219 -296 240 -296C259 -296 285 -304 312 -312C343 -321 377 -331 407 -331C433 -331 448 -331 461 -330C474 -336 479 -343 483 -351C480 -355 474 -358 446 -358C421 -358 404 -355 388 -352C381 -350 374 -349 366 -348C367 -360 371 -367 376 -374C380 -381 384 -388 384 -398C384 -415 375 -431 364 -435C347 -429 332 -414 329 -407C335 -398 344 -397 344 -387C344 -374 323 -331 315 -331C312 -331 310 -332 308 -336C312 -354 319 -369 319 -388C319 -393 316 -398 312 -398C302 -398 296 -382 287 -369C281 -359 275 -358 275 -350C279 -344 288 -347 288 -341C288 -322 279 -319 254 -319C240 -319 229 -322 218 -324C208 -327 199 -329 189 -329C177 -329 167 -321 162 -318ZM203 -588C203 -581 214 -576 223 -576C246 -576 291 -588 345 -603C361 -607 377 -612 394 -616C397 -622 408 -634 408 -647C408 -650 404 -651 399 -651C391 -651 373 -645 350 -638C335 -633 317 -627 300 -622C289 -619 280 -617 271 -614C224 -602 203 -596 203 -588ZM247 -136L281 -147C281 -142 282 -136 286 -131C277 -127 268 -123 254 -120ZM262 -224C262 -235 258 -231 282 -235V-212C275 -211 268 -210 263 -210C263 -215 262 -219 262 -224ZM262 -250V-268L286 -272C285 -266 284 -259 284 -252C278 -251 272 -249 266 -249ZM304 -217V-239C321 -242 335 -246 345 -249C344 -241 344 -232 344 -226C331 -222 318 -218 304 -217ZM304 -256C304 -263 306 -267 307 -277C321 -279 329 -284 347 -287C347 -279 346 -273 346 -264C333 -262 323 -259 304 -256ZM306 -172V-199C324 -204 335 -206 344 -209C345 -200 345 -194 345 -183C332 -178 321 -175 306 -172ZM307 -154C320 -158 333 -163 346 -165C345 -160 346 -154 347 -149C329 -144 321 -138 312 -138C309 -138 307 -146 307 -154ZM322 -120C334 -125 337 -131 348 -134C350 -131 352 -124 354 -121C365 -121 382 -128 391 -134C392 -136 394 -141 394 -145C394 -153 391 -162 391 -166C410 -165 450 -154 450 -142C450 -117 418 -125 401 -118C387 -112 381 -101 367 -101C355 -101 328 -112 322 -120Z"></path>
  </g>
</svg>