<svg xmlns="http://www.w3.org/2000/svg" version="1.1" xmlns:xlink="http://www.w3.org/1999/xlink"
  width="469.800000" height="49.800000" viewBox="0 -830 7830 830">
  <g id="p2">
    <path transform="translate(-30, -35)" fill="#000000"
      d="M90 35H550C583 35 610 8 610 -25V-735C610 -768 583 -795 550 -795H90C57 -795 30 -768 30 -735V-25C30 8 57 35 90 35ZM60 -25V-735C60 -752 73 -765 90 -765H550C567 -765 580 -752 580 -735V-25C580 -8 567 5 550 5H90C73 5 60 -8 60 -25ZM189 -220C189 -148 248 -89 320 -89C392 -89 451 -148 451 -220C451 -292 392 -351 320 -351C248 -351 189 -292 189 -220ZM189 -540C189 -468 248 -409 320 -409C392 -409 451 -468 451 -540C451 -612 392 -671 320 -671C248 -671 189 -612 189 -540ZM212 -220C212 -280 260 -328 320 -328C380 -328 428 -280 428 -220C428 -160 380 -112 320 -112C260 -112 212 -160 212 -220ZM212 -540C212 -600 260 -648 320 -648C380 -648 428 -600 428 -540C428 -480 380 -432 320 -432C260 -432 212 -480 212 -540ZM224 -220C224 -167 267 -124 320 -124C373 -124 416 -167 416 -220C416 -273 373 -316 320 -316C267 -316 224 -273 224 -220ZM224 -540C224 -487 267 -444 320 -444C373 -444 416 -487 416 -540C416 -593 373 -636 320 -636C267 -636 224 -593 224 -540ZM230 -220C230 -228 231 -236 233 -244L254 -254L287 -235L284 -224H252V-216H284L287 -205L254 -186L233 -196C231 -204 230 -212 230 -220ZM230 -540C230 -548 231 -556 233 -564L254 -574L287 -555L284 -544H252V-536H284L287 -525L254 -506L233 -516C231 -524 230 -532 230 -540ZM256 -157L257 -180L291 -199C293 -196 296 -193 299 -191L283 -163L289 -159L305 -187L316 -184V-146L297 -133C281 -137 267 -145 256 -157ZM256 -283C267 -295 281 -303 297 -307L316 -294V-256L305 -253L289 -281L283 -277L299 -249C296 -247 293 -244 291 -241L257 -260ZM256 -477L257 -500L291 -519C293 -516 296 -513 299 -511L283 -483L289 -479L305 -507L316 -504V-466L297 -453C281 -457 267 -465 256 -477ZM256 -603C267 -615 281 -623 297 -627L316 -614V-576L305 -573L289 -601L283 -597L299 -569C296 -567 293 -564 291 -561L257 -580ZM290 -220C290 -237 303 -250 320 -250C337 -250 350 -237 350 -220C350 -203 337 -190 320 -190C303 -190 290 -203 290 -220ZM290 -540C290 -557 303 -570 320 -570C337 -570 350 -557 350 -540C350 -523 337 -510 320 -510C303 -510 290 -523 290 -540ZM306 -220C306 -212 312 -206 320 -206C328 -206 334 -212 334 -220C334 -228 328 -234 320 -234C312 -234 306 -228 306 -220ZM306 -540C306 -532 312 -526 320 -526C328 -526 334 -532 334 -540C334 -548 328 -554 320 -554C312 -554 306 -548 306 -540ZM324 -146V-184L335 -187L351 -159L357 -163L341 -191C344 -193 347 -196 349 -199L383 -180L384 -157C373 -145 359 -137 343 -133ZM324 -256V-294L343 -307C359 -303 373 -295 384 -283L383 -260L349 -241C347 -244 344 -247 341 -249L357 -277L351 -281L335 -253ZM324 -466V-504L335 -507L351 -479L357 -483L341 -511C344 -513 347 -516 349 -519L383 -500L384 -477C373 -465 359 -457 343 -453ZM324 -576V-614L343 -627C359 -623 373 -615 384 -603L383 -580L349 -561C347 -564 344 -567 341 -569L357 -597L351 -601L335 -573ZM353 -205L356 -216H388V-224H356L353 -235L386 -254L407 -244C409 -236 410 -228 410 -220C410 -212 409 -204 407 -196L386 -186ZM353 -525L356 -536H388V-544H356L353 -555L386 -574L407 -564C409 -556 410 -548 410 -540C410 -532 409 -524 407 -516L386 -506Z"></path>
  </g>
</svg>