<svg xmlns="http://www.w3.org/2000/svg" version="1.1" xmlns:xlink="http://www.w3.org/1999/xlink"
  width="469.800000" height="49.800000" viewBox="0 -830 7830 830">
  <g id="s2">
    <path transform="translate(-30, -35)" fill="#000000"
      d="M90 35H550C583 35 610 8 610 -25V-735C610 -768 583 -795 550 -795H90C57 -795 30 -768 30 -735V-25C30 8 57 35 90 35ZM60 -25V-735C60 -752 73 -765 90 -765H550C567 -765 580 -752 580 -735V-25C580 -8 567 5 550 5H90C73 5 60 -8 60 -25ZM259 -70C259 -56 271 -47 285 -47C301 -47 302 -56 320 -56C338 -56 339 -47 355 -47C369 -47 381 -56 381 -70C381 -80 374 -86 366 -91C360 -97 353 -102 353 -110V-157C353 -168 378 -181 378 -200C378 -219 353 -232 353 -243V-291C353 -299 360 -304 366 -310C374 -315 381 -321 381 -331C381 -347 365 -354 358 -354C345 -354 343 -368 320 -368C297 -368 295 -354 282 -354C275 -354 259 -347 259 -331C259 -321 266 -315 274 -310C280 -304 287 -299 287 -291V-243C287 -232 262 -219 262 -200C262 -181 287 -168 287 -157V-110C287 -102 280 -97 274 -91C266 -86 259 -80 259 -70ZM259 -425C259 -411 271 -402 285 -402C301 -402 302 -411 320 -411C338 -411 339 -402 355 -402C369 -402 381 -411 381 -425C381 -435 374 -441 366 -446C360 -452 353 -457 353 -465V-512C353 -523 378 -536 378 -555C378 -574 353 -587 353 -598V-646C353 -654 360 -659 366 -665C374 -670 381 -676 381 -686C381 -702 365 -709 358 -709C345 -709 343 -723 320 -723C297 -723 295 -709 282 -709C275 -709 259 -702 259 -686C259 -676 266 -670 274 -665C280 -659 287 -654 287 -646V-598C287 -587 262 -574 262 -555C262 -536 287 -523 287 -512V-465C287 -457 280 -452 274 -446C266 -441 259 -435 259 -425ZM287 -188C287 -192 291 -195 297 -195H343C349 -195 353 -192 353 -188C353 -184 349 -180 343 -180H297C291 -180 287 -183 287 -188ZM287 -213C287 -217 291 -220 297 -220H343C349 -220 353 -217 353 -213C353 -209 349 -205 343 -205H297C291 -205 287 -208 287 -213ZM287 -543C287 -547 291 -550 297 -550H343C349 -550 353 -547 353 -543C353 -539 349 -535 343 -535H297C291 -535 287 -538 287 -543ZM287 -568C287 -572 291 -575 297 -575H343C349 -575 353 -572 353 -568C353 -564 349 -560 343 -560H297C291 -560 287 -563 287 -568ZM295 -330C295 -342 306 -352 320 -352C334 -352 345 -342 345 -330C345 -323 341 -316 335 -312V-230H305V-312C299 -316 295 -323 295 -330ZM295 -685C295 -697 306 -707 320 -707C334 -707 345 -697 345 -685C345 -678 341 -671 335 -667V-585H305V-667C299 -671 295 -678 295 -685ZM305 -82V-170H335V-82C335 -74 330 -69 320 -69C310 -69 305 -74 305 -82ZM305 -437V-525H335V-437C335 -429 330 -424 320 -424C310 -424 305 -429 305 -437Z"></path>
  </g>
</svg>