<svg xmlns="http://www.w3.org/2000/svg" version="1.1" xmlns:xlink="http://www.w3.org/1999/xlink"
    width="469.800000" height="49.800000" viewBox="0 -830 7830 830">
    <g id="z2">
        <path transform="translate(-30, -35)" fill="#000000"
            d="M90 35H550C583 35 610 8 610 -25V-735C610 -768 583 -795 550 -795H90C57 -795 30 -768 30 -735V-25C30 8 57 35 90 35ZM60 -25V-735C60 -752 73 -765 90 -765H550C567 -765 580 -752 580 -735V-25C580 -8 567 5 550 5H90C73 5 60 -8 60 -25ZM144 -356C150 -338 160 -312 176 -281C180 -272 185 -263 189 -253C204 -219 220 -185 236 -185C244 -185 254 -193 254 -203C254 -219 243 -240 233 -261C222 -282 212 -303 212 -318C212 -326 247 -344 264 -349C271 -341 283 -324 285 -308C273 -304 257 -299 249 -292C252 -288 255 -283 264 -283C269 -283 276 -290 296 -295C298 -286 298 -277 300 -267C276 -258 265 -258 256 -252C259 -246 262 -242 268 -242C274 -242 285 -247 300 -251C300 -238 299 -213 298 -207C292 -209 283 -210 279 -210C314 -189 334 -174 348 -164C367 -150 374 -145 388 -145C406 -145 416 -164 435 -200C441 -212 449 -227 458 -243C478 -278 496 -309 496 -327C496 -338 491 -345 483 -355C479 -360 475 -366 470 -374C448 -410 438 -410 408 -410C416 -422 426 -423 426 -436C426 -444 416 -452 406 -461C390 -452 375 -441 362 -430C341 -414 322 -400 304 -397C309 -413 315 -431 322 -449C357 -459 384 -470 397 -477C396 -485 384 -511 375 -511C370 -511 363 -505 355 -498C348 -491 341 -484 332 -480C337 -499 342 -524 346 -539C356 -531 364 -530 370 -530C375 -530 378 -531 378 -531C378 -534 379 -536 379 -539C379 -566 343 -612 332 -616C320 -605 301 -579 294 -564H297C304 -564 308 -555 308 -533C308 -518 306 -496 303 -465C287 -456 271 -451 259 -448C249 -445 242 -443 239 -440C242 -436 246 -434 250 -434C269 -434 282 -436 298 -440C296 -419 292 -392 288 -371C282 -369 275 -366 271 -364C262 -380 223 -395 190 -409C187 -411 183 -406 183 -401C183 -390 218 -395 255 -357C243 -351 225 -345 201 -336C194 -339 188 -343 181 -347C170 -353 160 -359 150 -359C147 -359 146 -357 144 -356ZM277 -355C286 -359 308 -368 354 -374C348 -356 342 -343 331 -323C321 -318 312 -315 297 -312C293 -325 285 -342 277 -355ZM297 -373C298 -378 299 -386 302 -392C328 -399 351 -414 358 -414C362 -414 366 -412 366 -408C366 -404 365 -402 364 -399C351 -390 327 -381 297 -373ZM320 -200C324 -213 326 -240 327 -260C351 -266 359 -267 380 -267C384 -267 386 -270 386 -274C386 -282 381 -290 373 -290C367 -290 360 -284 327 -276C328 -287 328 -296 330 -305C351 -311 373 -312 385 -312C389 -312 396 -313 396 -318C396 -326 388 -333 380 -333C374 -333 367 -332 351 -329C360 -350 373 -364 381 -377C384 -378 387 -378 391 -378C394 -378 397 -378 400 -377C411 -365 435 -341 435 -330C435 -314 429 -303 417 -278C414 -271 410 -264 406 -255C384 -207 365 -185 359 -185C351 -185 334 -194 320 -200Z"></path>
    </g>
</svg>