<svg xmlns="http://www.w3.org/2000/svg" version="1.1" xmlns:xlink="http://www.w3.org/1999/xlink"
  width="469.800000" height="49.800000" viewBox="0 -830 7830 830">
  <g id="p3">
    <path transform="translate(-30, -35)" fill="#000000"
      d="M90 35H550C583 35 610 8 610 -25V-735C610 -768 583 -795 550 -795H90C57 -795 30 -768 30 -735V-25C30 8 57 35 90 35ZM60 -25V-735C60 -752 73 -765 90 -765H550C567 -765 580 -752 580 -735V-25C580 -8 567 5 550 5H90C73 5 60 -8 60 -25ZM100 -605C100 -550 145 -505 200 -505C255 -505 300 -550 300 -605C300 -660 255 -705 200 -705C145 -705 100 -660 100 -605ZM120 -605C120 -649 156 -685 200 -685C244 -685 280 -649 280 -605C280 -561 244 -525 200 -525C156 -525 120 -561 120 -605ZM130 -605C130 -566 161 -535 200 -535C239 -535 270 -566 270 -605C270 -644 239 -675 200 -675C161 -675 130 -644 130 -605ZM140 -601V-605C140 -620 145 -633 154 -644H166L177 -628C175 -621 170 -617 170 -604L168 -600L149 -594ZM149 -573L153 -584L171 -590L175 -588C179 -582 185 -578 192 -576L195 -573V-553L186 -547C170 -551 157 -560 149 -573ZM174 -650L178 -661C184 -663 192 -665 200 -665C208 -665 216 -663 222 -661L226 -650L215 -634H211C207 -635 204 -635 200 -635C196 -635 193 -635 189 -634H185ZM180 -605C180 -616 189 -625 200 -625C211 -625 220 -616 220 -605C220 -594 211 -585 200 -585C189 -585 180 -594 180 -605ZM190 -605C190 -599 194 -595 200 -595C206 -595 210 -599 210 -605C210 -611 206 -615 200 -615C194 -615 190 -611 190 -605ZM205 -553V-573C214 -577 222 -584 229 -590L247 -584L251 -573C243 -560 230 -551 214 -547ZM220 -380C220 -325 265 -280 320 -280C375 -280 420 -325 420 -380C420 -435 375 -480 320 -480C265 -480 220 -435 220 -380ZM223 -628L234 -644H246C255 -633 260 -620 260 -605V-601L251 -594L232 -600L230 -604C230 -617 225 -621 223 -628ZM240 -380C240 -424 276 -460 320 -460C364 -460 400 -424 400 -380C400 -336 364 -300 320 -300C276 -300 240 -336 240 -380ZM250 -380C250 -341 281 -310 320 -310C359 -310 390 -341 390 -380C390 -419 359 -450 320 -450C281 -450 250 -419 250 -380ZM260 -376V-380C260 -395 265 -408 274 -419H286L297 -403C295 -396 290 -392 290 -379L288 -375L269 -369ZM269 -348L273 -359L291 -365L295 -363C299 -357 305 -353 312 -351L315 -348V-328L306 -322C290 -326 277 -335 269 -348ZM294 -425L298 -436C304 -438 312 -440 320 -440C328 -440 336 -438 342 -436L346 -425L335 -409H331C327 -410 324 -410 320 -410C316 -410 313 -410 309 -409H305ZM300 -380C300 -391 309 -400 320 -400C331 -400 340 -391 340 -380C340 -369 331 -360 320 -360C309 -360 300 -369 300 -380ZM310 -380C310 -374 314 -370 320 -370C326 -370 330 -374 330 -380C330 -386 326 -390 320 -390C314 -390 310 -386 310 -380ZM325 -328V-348C334 -352 342 -359 349 -365L367 -359L371 -348C363 -335 350 -326 334 -322ZM340 -155C340 -100 385 -55 440 -55C495 -55 540 -100 540 -155C540 -210 495 -255 440 -255C385 -255 340 -210 340 -155ZM343 -403L354 -419H366C375 -408 380 -395 380 -380V-376L371 -369L352 -375L350 -379C350 -392 345 -396 343 -403ZM360 -155C360 -199 396 -235 440 -235C484 -235 520 -199 520 -155C520 -111 484 -75 440 -75C396 -75 360 -111 360 -155ZM370 -155C370 -116 401 -85 440 -85C479 -85 510 -116 510 -155C510 -194 479 -225 440 -225C401 -225 370 -194 370 -155ZM380 -151V-155C380 -170 385 -183 394 -194H406L417 -178C415 -171 410 -167 410 -154L408 -150L389 -144ZM389 -123L393 -134L411 -140L415 -138C419 -132 425 -128 432 -126L435 -123V-103L426 -97C410 -101 397 -110 389 -123ZM414 -200L418 -211C424 -213 432 -215 440 -215C448 -215 456 -213 462 -211L466 -200L455 -184H451C447 -185 444 -185 440 -185C436 -185 433 -185 429 -184H425ZM420 -155C420 -166 429 -175 440 -175C451 -175 460 -166 460 -155C460 -144 451 -135 440 -135C429 -135 420 -144 420 -155ZM430 -155C430 -149 434 -145 440 -145C446 -145 450 -149 450 -155C450 -161 446 -165 440 -165C434 -165 430 -161 430 -155ZM445 -103V-123C454 -127 462 -134 469 -140L487 -134L491 -123C483 -110 470 -101 454 -97ZM463 -178L474 -194H486C495 -183 500 -170 500 -155V-151L491 -144L472 -150L470 -154C470 -167 465 -171 463 -178Z"></path>
  </g>
</svg>