<svg xmlns="http://www.w3.org/2000/svg" version="1.1" xmlns:xlink="http://www.w3.org/1999/xlink"
  width="469.800000" height="49.800000" viewBox="0 -830 7830 830">
  <g id="s3">
    <path transform="translate(-30, -35)" fill="#000000"
      d="M90 35H550C583 35 610 8 610 -25V-735C610 -768 583 -795 550 -795H90C57 -795 30 -768 30 -735V-25C30 8 57 35 90 35ZM60 -25V-735C60 -752 73 -765 90 -765H550C567 -765 580 -752 580 -735V-25C580 -8 567 5 550 5H90C73 5 60 -8 60 -25ZM104 -70C104 -56 116 -47 130 -47C146 -47 147 -56 165 -56C183 -56 184 -47 200 -47C214 -47 226 -56 226 -70C226 -80 219 -86 211 -91C205 -97 198 -102 198 -110V-157C198 -168 223 -181 223 -200C223 -219 198 -232 198 -243V-291C198 -299 205 -304 211 -310C219 -315 226 -321 226 -331C226 -347 210 -354 203 -354C190 -354 188 -368 165 -368C142 -368 140 -354 127 -354C120 -354 104 -347 104 -331C104 -321 111 -315 119 -310C125 -304 132 -299 132 -291V-243C132 -232 107 -219 107 -200C107 -181 132 -168 132 -157V-110C132 -102 125 -97 119 -91C111 -86 104 -80 104 -70ZM132 -188C132 -192 136 -195 142 -195H188C194 -195 198 -192 198 -188C198 -184 194 -180 188 -180H142C136 -180 132 -183 132 -188ZM132 -213C132 -217 136 -220 142 -220H188C194 -220 198 -217 198 -213C198 -209 194 -205 188 -205H142C136 -205 132 -208 132 -213ZM140 -330C140 -342 151 -352 165 -352C179 -352 190 -342 190 -330C190 -323 186 -316 180 -312V-230H150V-312C144 -316 140 -323 140 -330ZM150 -82V-170H180V-82C180 -74 175 -69 165 -69C155 -69 150 -74 150 -82ZM259 -425C259 -411 271 -402 285 -402C301 -402 302 -411 320 -411C338 -411 339 -402 355 -402C369 -402 381 -411 381 -425C381 -435 374 -441 366 -446C360 -452 353 -457 353 -465V-512C353 -523 378 -536 378 -555C378 -574 353 -587 353 -598V-646C353 -654 360 -659 366 -665C374 -670 381 -676 381 -686C381 -702 365 -709 358 -709C345 -709 343 -723 320 -723C297 -723 295 -709 282 -709C275 -709 259 -702 259 -686C259 -676 266 -670 274 -665C280 -659 287 -654 287 -646V-598C287 -587 262 -574 262 -555C262 -536 287 -523 287 -512V-465C287 -457 280 -452 274 -446C266 -441 259 -435 259 -425ZM287 -543C287 -547 291 -550 297 -550H343C349 -550 353 -547 353 -543C353 -539 349 -535 343 -535H297C291 -535 287 -538 287 -543ZM287 -568C287 -572 291 -575 297 -575H343C349 -575 353 -572 353 -568C353 -564 349 -560 343 -560H297C291 -560 287 -563 287 -568ZM295 -685C295 -697 306 -707 320 -707C334 -707 345 -697 345 -685C345 -678 341 -671 335 -667V-585H305V-667C299 -671 295 -678 295 -685ZM305 -437V-525H335V-437C335 -429 330 -424 320 -424C310 -424 305 -429 305 -437ZM414 -70C414 -56 426 -47 440 -47C456 -47 457 -56 475 -56C493 -56 494 -47 510 -47C524 -47 536 -56 536 -70C536 -80 529 -86 521 -91C515 -97 508 -102 508 -110V-157C508 -168 533 -181 533 -200C533 -219 508 -232 508 -243V-291C508 -299 515 -304 521 -310C529 -315 536 -321 536 -331C536 -347 520 -354 513 -354C500 -354 498 -368 475 -368C452 -368 450 -354 437 -354C430 -354 414 -347 414 -331C414 -321 421 -315 429 -310C435 -304 442 -299 442 -291V-243C442 -232 417 -219 417 -200C417 -181 442 -168 442 -157V-110C442 -102 435 -97 429 -91C421 -86 414 -80 414 -70ZM442 -188C442 -192 446 -195 452 -195H498C504 -195 508 -192 508 -188C508 -184 504 -180 498 -180H452C446 -180 442 -183 442 -188ZM442 -213C442 -217 446 -220 452 -220H498C504 -220 508 -217 508 -213C508 -209 504 -205 498 -205H452C446 -205 442 -208 442 -213ZM450 -330C450 -342 461 -352 475 -352C489 -352 500 -342 500 -330C500 -323 496 -316 490 -312V-230H460V-312C454 -316 450 -323 450 -330ZM460 -82V-170H490V-82C490 -74 485 -69 475 -69C465 -69 460 -74 460 -82Z"></path>
  </g>
</svg>