<svg xmlns="http://www.w3.org/2000/svg" version="1.1" xmlns:xlink="http://www.w3.org/1999/xlink"
    width="469.800000" height="49.800000" viewBox="0 -830 7830 830">
    <g id="z3">
        <path transform="translate(-30, -35)" fill="#000000"
            d="M90 35H550C583 35 610 8 610 -25V-735C610 -768 583 -795 550 -795H90C57 -795 30 -768 30 -735V-25C30 8 57 35 90 35ZM60 -25V-735C60 -752 73 -765 90 -765H550C567 -765 580 -752 580 -735V-25C580 -8 567 5 550 5H90C73 5 60 -8 60 -25ZM141 -502C142 -493 153 -490 163 -490C166 -490 173 -492 185 -494C216 -501 273 -514 327 -514C341 -514 357 -513 361 -508C358 -500 348 -490 340 -484C334 -482 330 -481 325 -479C322 -473 322 -468 321 -463C313 -452 294 -430 274 -409C274 -422 270 -467 258 -467C252 -467 252 -458 252 -451C252 -443 256 -413 258 -395C242 -386 223 -379 204 -373C200 -380 182 -397 166 -408C163 -410 162 -406 159 -404C160 -397 166 -382 177 -355C188 -328 203 -288 224 -232C219 -229 209 -225 209 -218C209 -210 217 -198 247 -198C255 -198 262 -199 269 -200C277 -201 285 -202 295 -202C304 -202 312 -201 319 -200C326 -199 334 -198 342 -198C373 -198 377 -211 379 -216C415 -297 444 -324 460 -339C469 -347 474 -352 474 -361C474 -386 408 -434 388 -434C370 -434 372 -425 341 -419C343 -433 345 -438 348 -444C363 -451 381 -445 381 -461C381 -472 372 -476 363 -481C364 -487 369 -490 372 -492C378 -493 382 -494 388 -494C402 -494 419 -492 436 -490C453 -487 470 -485 485 -485C493 -485 499 -487 499 -498C499 -512 490 -523 456 -542C440 -551 435 -561 418 -561C404 -561 331 -545 259 -528C247 -526 236 -523 225 -521C192 -513 162 -506 141 -502ZM210 -359C226 -367 247 -376 258 -379L261 -319C261 -298 263 -284 266 -268C267 -258 269 -248 270 -235H253C248 -256 223 -329 210 -359ZM277 -386C287 -390 301 -392 315 -396L312 -355C309 -322 305 -281 302 -233C297 -233 291 -234 286 -234C284 -277 282 -306 280 -335ZM295 -408C296 -414 299 -424 303 -431C306 -433 310 -435 315 -435L319 -434V-431C319 -425 318 -419 318 -414C309 -412 306 -409 295 -408ZM318 -231C321 -280 325 -314 329 -342L332 -366L337 -401C347 -403 353 -404 363 -404C373 -404 402 -389 402 -369C402 -353 352 -256 334 -232C330 -231 328 -230 325 -230C323 -230 321 -231 318 -231Z"></path>
    </g>
</svg>