<svg xmlns="http://www.w3.org/2000/svg" version="1.1" xmlns:xlink="http://www.w3.org/1999/xlink"
  width="469.800000" height="49.800000" viewBox="0 -830 7830 830">
  <g id="p4">
    <path transform="translate(-30, -35)" fill="#000000"
      d="M90 35H550C583 35 610 8 610 -25V-735C610 -768 583 -795 550 -795H90C57 -795 30 -768 30 -735V-25C30 8 57 35 90 35ZM60 -25V-735C60 -752 73 -765 90 -765H550C567 -765 580 -752 580 -735V-25C580 -8 567 5 550 5H90C73 5 60 -8 60 -25ZM100 -155C100 -100 145 -55 200 -55C255 -55 300 -100 300 -155C300 -210 255 -255 200 -255C145 -255 100 -210 100 -155ZM100 -605C100 -550 145 -505 200 -505C255 -505 300 -550 300 -605C300 -660 255 -705 200 -705C145 -705 100 -660 100 -605ZM120 -155C120 -199 156 -235 200 -235C244 -235 280 -199 280 -155C280 -111 244 -75 200 -75C156 -75 120 -111 120 -155ZM120 -605C120 -649 156 -685 200 -685C244 -685 280 -649 280 -605C280 -561 244 -525 200 -525C156 -525 120 -561 120 -605ZM130 -155C130 -116 161 -85 200 -85C239 -85 270 -116 270 -155C270 -194 239 -225 200 -225C161 -225 130 -194 130 -155ZM130 -605C130 -566 161 -535 200 -535C239 -535 270 -566 270 -605C270 -644 239 -675 200 -675C161 -675 130 -644 130 -605ZM140 -151V-155C140 -170 145 -183 154 -194H166L177 -178C175 -171 170 -167 170 -154L168 -150L149 -144ZM140 -601V-605C140 -620 145 -633 154 -644H166L177 -628C175 -621 170 -617 170 -604L168 -600L149 -594ZM149 -123L153 -134L171 -140L175 -138C179 -132 185 -128 192 -126L195 -123V-103L186 -97C170 -101 157 -110 149 -123ZM149 -573L153 -584L171 -590L175 -588C179 -582 185 -578 192 -576L195 -573V-553L186 -547C170 -551 157 -560 149 -573ZM174 -200L178 -211C184 -213 192 -215 200 -215C208 -215 216 -213 222 -211L226 -200L215 -184H211C207 -185 204 -185 200 -185C196 -185 193 -185 189 -184H185ZM174 -650L178 -661C184 -663 192 -665 200 -665C208 -665 216 -663 222 -661L226 -650L215 -634H211C207 -635 204 -635 200 -635C196 -635 193 -635 189 -634H185ZM180 -155C180 -166 189 -175 200 -175C211 -175 220 -166 220 -155C220 -144 211 -135 200 -135C189 -135 180 -144 180 -155ZM180 -605C180 -616 189 -625 200 -625C211 -625 220 -616 220 -605C220 -594 211 -585 200 -585C189 -585 180 -594 180 -605ZM190 -155C190 -149 194 -145 200 -145C206 -145 210 -149 210 -155C210 -161 206 -165 200 -165C194 -165 190 -161 190 -155ZM190 -605C190 -599 194 -595 200 -595C206 -595 210 -599 210 -605C210 -611 206 -615 200 -615C194 -615 190 -611 190 -605ZM205 -103V-123C214 -127 222 -134 229 -140L247 -134L251 -123C243 -110 230 -101 214 -97ZM205 -553V-573C214 -577 222 -584 229 -590L247 -584L251 -573C243 -560 230 -551 214 -547ZM223 -178L234 -194H246C255 -183 260 -170 260 -155V-151L251 -144L232 -150L230 -154C230 -167 225 -171 223 -178ZM223 -628L234 -644H246C255 -633 260 -620 260 -605V-601L251 -594L232 -600L230 -604C230 -617 225 -621 223 -628ZM340 -155C340 -100 385 -55 440 -55C495 -55 540 -100 540 -155C540 -210 495 -255 440 -255C385 -255 340 -210 340 -155ZM340 -605C340 -550 385 -505 440 -505C495 -505 540 -550 540 -605C540 -660 495 -705 440 -705C385 -705 340 -660 340 -605ZM360 -155C360 -199 396 -235 440 -235C484 -235 520 -199 520 -155C520 -111 484 -75 440 -75C396 -75 360 -111 360 -155ZM360 -605C360 -649 396 -685 440 -685C484 -685 520 -649 520 -605C520 -561 484 -525 440 -525C396 -525 360 -561 360 -605ZM370 -155C370 -116 401 -85 440 -85C479 -85 510 -116 510 -155C510 -194 479 -225 440 -225C401 -225 370 -194 370 -155ZM370 -605C370 -566 401 -535 440 -535C479 -535 510 -566 510 -605C510 -644 479 -675 440 -675C401 -675 370 -644 370 -605ZM380 -151V-155C380 -170 385 -183 394 -194H406L417 -178C415 -171 410 -167 410 -154L408 -150L389 -144ZM380 -601V-605C380 -620 385 -633 394 -644H406L417 -628C415 -621 410 -617 410 -604L408 -600L389 -594ZM389 -123L393 -134L411 -140L415 -138C419 -132 425 -128 432 -126L435 -123V-103L426 -97C410 -101 397 -110 389 -123ZM389 -573L393 -584L411 -590L415 -588C419 -582 425 -578 432 -576L435 -573V-553L426 -547C410 -551 397 -560 389 -573ZM414 -200L418 -211C424 -213 432 -215 440 -215C448 -215 456 -213 462 -211L466 -200L455 -184H451C447 -185 444 -185 440 -185C436 -185 433 -185 429 -184H425ZM414 -650L418 -661C424 -663 432 -665 440 -665C448 -665 456 -663 462 -661L466 -650L455 -634H451C447 -635 444 -635 440 -635C436 -635 433 -635 429 -634H425ZM420 -155C420 -166 429 -175 440 -175C451 -175 460 -166 460 -155C460 -144 451 -135 440 -135C429 -135 420 -144 420 -155ZM420 -605C420 -616 429 -625 440 -625C451 -625 460 -616 460 -605C460 -594 451 -585 440 -585C429 -585 420 -594 420 -605ZM430 -155C430 -149 434 -145 440 -145C446 -145 450 -149 450 -155C450 -161 446 -165 440 -165C434 -165 430 -161 430 -155ZM430 -605C430 -599 434 -595 440 -595C446 -595 450 -599 450 -605C450 -611 446 -615 440 -615C434 -615 430 -611 430 -605ZM445 -103V-123C454 -127 462 -134 469 -140L487 -134L491 -123C483 -110 470 -101 454 -97ZM445 -553V-573C454 -577 462 -584 469 -590L487 -584L491 -573C483 -560 470 -551 454 -547ZM463 -178L474 -194H486C495 -183 500 -170 500 -155V-151L491 -144L472 -150L470 -154C470 -167 465 -171 463 -178ZM463 -628L474 -644H486C495 -633 500 -620 500 -605V-601L491 -594L472 -600L470 -604C470 -617 465 -621 463 -628Z"></path>
  </g>
</svg>