<svg xmlns="http://www.w3.org/2000/svg" version="1.1" xmlns:xlink="http://www.w3.org/1999/xlink"
  width="469.800000" height="49.800000" viewBox="0 -830 7830 830">
  <g id="s4">
    <path transform="translate(-30, -35)" fill="#000000"
      d="M90 35H550C583 35 610 8 610 -25V-735C610 -768 583 -795 550 -795H90C57 -795 30 -768 30 -735V-25C30 8 57 35 90 35ZM60 -25V-735C60 -752 73 -765 90 -765H550C567 -765 580 -752 580 -735V-25C580 -8 567 5 550 5H90C73 5 60 -8 60 -25ZM139 -70C139 -56 151 -47 165 -47C181 -47 182 -56 200 -56C218 -56 219 -47 235 -47C249 -47 261 -56 261 -70C261 -80 254 -86 246 -91C240 -97 233 -102 233 -110V-157C233 -168 258 -181 258 -200C258 -219 233 -232 233 -243V-291C233 -299 240 -304 246 -310C254 -315 261 -321 261 -331C261 -347 245 -354 238 -354C225 -354 223 -368 200 -368C177 -368 175 -354 162 -354C155 -354 139 -347 139 -331C139 -321 146 -315 154 -310C160 -304 167 -299 167 -291V-243C167 -232 142 -219 142 -200C142 -181 167 -168 167 -157V-110C167 -102 160 -97 154 -91C146 -86 139 -80 139 -70ZM139 -425C139 -411 151 -402 165 -402C181 -402 182 -411 200 -411C218 -411 219 -402 235 -402C249 -402 261 -411 261 -425C261 -435 254 -441 246 -446C240 -452 233 -457 233 -465V-512C233 -523 258 -536 258 -555C258 -574 233 -587 233 -598V-646C233 -654 240 -659 246 -665C254 -670 261 -676 261 -686C261 -702 245 -709 238 -709C225 -709 223 -723 200 -723C177 -723 175 -709 162 -709C155 -709 139 -702 139 -686C139 -676 146 -670 154 -665C160 -659 167 -654 167 -646V-598C167 -587 142 -574 142 -555C142 -536 167 -523 167 -512V-465C167 -457 160 -452 154 -446C146 -441 139 -435 139 -425ZM167 -188C167 -192 171 -195 177 -195H223C229 -195 233 -192 233 -188C233 -184 229 -180 223 -180H177C171 -180 167 -183 167 -188ZM167 -213C167 -217 171 -220 177 -220H223C229 -220 233 -217 233 -213C233 -209 229 -205 223 -205H177C171 -205 167 -208 167 -213ZM167 -543C167 -547 171 -550 177 -550H223C229 -550 233 -547 233 -543C233 -539 229 -535 223 -535H177C171 -535 167 -538 167 -543ZM167 -568C167 -572 171 -575 177 -575H223C229 -575 233 -572 233 -568C233 -564 229 -560 223 -560H177C171 -560 167 -563 167 -568ZM175 -330C175 -342 186 -352 200 -352C214 -352 225 -342 225 -330C225 -323 221 -316 215 -312V-230H185V-312C179 -316 175 -323 175 -330ZM175 -685C175 -697 186 -707 200 -707C214 -707 225 -697 225 -685C225 -678 221 -671 215 -667V-585H185V-667C179 -671 175 -678 175 -685ZM185 -82V-170H215V-82C215 -74 210 -69 200 -69C190 -69 185 -74 185 -82ZM185 -437V-525H215V-437C215 -429 210 -424 200 -424C190 -424 185 -429 185 -437ZM379 -70C379 -56 391 -47 405 -47C421 -47 422 -56 440 -56C458 -56 459 -47 475 -47C489 -47 501 -56 501 -70C501 -80 494 -86 486 -91C480 -97 473 -102 473 -110V-157C473 -168 498 -181 498 -200C498 -219 473 -232 473 -243V-291C473 -299 480 -304 486 -310C494 -315 501 -321 501 -331C501 -347 485 -354 478 -354C465 -354 463 -368 440 -368C417 -368 415 -354 402 -354C395 -354 379 -347 379 -331C379 -321 386 -315 394 -310C400 -304 407 -299 407 -291V-243C407 -232 382 -219 382 -200C382 -181 407 -168 407 -157V-110C407 -102 400 -97 394 -91C386 -86 379 -80 379 -70ZM379 -425C379 -411 391 -402 405 -402C421 -402 422 -411 440 -411C458 -411 459 -402 475 -402C489 -402 501 -411 501 -425C501 -435 494 -441 486 -446C480 -452 473 -457 473 -465V-512C473 -523 498 -536 498 -555C498 -574 473 -587 473 -598V-646C473 -654 480 -659 486 -665C494 -670 501 -676 501 -686C501 -702 485 -709 478 -709C465 -709 463 -723 440 -723C417 -723 415 -709 402 -709C395 -709 379 -702 379 -686C379 -676 386 -670 394 -665C400 -659 407 -654 407 -646V-598C407 -587 382 -574 382 -555C382 -536 407 -523 407 -512V-465C407 -457 400 -452 394 -446C386 -441 379 -435 379 -425ZM407 -188C407 -192 411 -195 417 -195H463C469 -195 473 -192 473 -188C473 -184 469 -180 463 -180H417C411 -180 407 -183 407 -188ZM407 -213C407 -217 411 -220 417 -220H463C469 -220 473 -217 473 -213C473 -209 469 -205 463 -205H417C411 -205 407 -208 407 -213ZM407 -543C407 -547 411 -550 417 -550H463C469 -550 473 -547 473 -543C473 -539 469 -535 463 -535H417C411 -535 407 -538 407 -543ZM407 -568C407 -572 411 -575 417 -575H463C469 -575 473 -572 473 -568C473 -564 469 -560 463 -560H417C411 -560 407 -563 407 -568ZM415 -330C415 -342 426 -352 440 -352C454 -352 465 -342 465 -330C465 -323 461 -316 455 -312V-230H425V-312C419 -316 415 -323 415 -330ZM415 -685C415 -697 426 -707 440 -707C454 -707 465 -697 465 -685C465 -678 461 -671 455 -667V-585H425V-667C419 -671 415 -678 415 -685ZM425 -82V-170H455V-82C455 -74 450 -69 440 -69C430 -69 425 -74 425 -82ZM425 -437V-525H455V-437C455 -429 450 -424 440 -424C430 -424 425 -429 425 -437Z"></path>
  </g>
</svg>