<svg xmlns="http://www.w3.org/2000/svg" version="1.1" xmlns:xlink="http://www.w3.org/1999/xlink"
    width="469.800000" height="49.800000" viewBox="0 -830 7830 830">
    <g id="z4">
        <path transform="translate(-30, -35)" fill="#000000"
            d="M90 35H550C583 35 610 8 610 -25V-735C610 -768 583 -795 550 -795H90C57 -795 30 -768 30 -735V-25C30 8 57 35 90 35ZM60 -25V-735C60 -752 73 -765 90 -765H550C567 -765 580 -752 580 -735V-25C580 -8 567 5 550 5H90C73 5 60 -8 60 -25ZM123 -215C123 -198 132 -194 141 -194C170 -194 189 -212 214 -234C228 -247 243 -260 262 -273C265 -269 269 -266 269 -259C269 -253 276 -248 280 -248C286 -249 303 -261 303 -281C303 -289 301 -293 301 -301C317 -315 328 -324 343 -335C343 -327 344 -319 344 -311C345 -302 346 -292 346 -281C346 -268 345 -261 345 -247C345 -222 369 -206 404 -206C501 -206 517 -231 517 -248C517 -255 510 -258 504 -258C496 -258 489 -256 481 -255C470 -252 457 -249 436 -249C385 -249 375 -261 375 -345V-353C414 -377 445 -385 465 -390C480 -394 488 -396 488 -402C488 -420 461 -434 444 -434C435 -434 427 -432 423 -428C423 -425 424 -423 424 -420C424 -399 411 -392 393 -381C387 -378 380 -374 373 -369V-427C373 -498 407 -489 407 -504C407 -522 375 -558 367 -564C361 -557 355 -551 349 -546C338 -536 327 -526 322 -509C335 -500 351 -495 351 -457C351 -444 349 -430 348 -414C345 -395 343 -373 343 -349C338 -345 332 -341 326 -337C319 -331 311 -325 301 -318C304 -415 304 -441 328 -456C319 -484 312 -486 288 -492C279 -495 266 -498 250 -504C245 -499 242 -492 242 -485C242 -474 247 -469 252 -463C262 -452 275 -438 275 -387C275 -371 276 -353 276 -338C276 -319 275 -303 270 -295C253 -281 207 -251 192 -249C190 -252 190 -256 190 -260C190 -264 192 -270 194 -281C198 -296 205 -322 213 -367C221 -367 245 -368 245 -381C245 -395 230 -399 217 -403C216 -416 215 -421 213 -426C210 -420 208 -414 207 -407C190 -409 175 -413 162 -419C165 -395 183 -382 200 -371C180 -296 153 -262 137 -241C129 -230 123 -223 123 -215Z"></path>
    </g>
</svg>