<svg xmlns="http://www.w3.org/2000/svg" version="1.1" xmlns:xlink="http://www.w3.org/1999/xlink"
  width="469.800000" height="49.800000" viewBox="0 -830 7830 830">
  <g id="m5">
    <path transform="translate(-30, -35)" fill="#000000"
      d="M90 35H550C583 35 610 8 610 -25V-735C610 -768 583 -795 550 -795H90C57 -795 30 -768 30 -735V-25C30 8 57 35 90 35ZM60 -25V-735C60 -752 73 -765 90 -765H550C567 -765 580 -752 580 -735V-25C580 -8 567 5 550 5H90C73 5 60 -8 60 -25ZM114 -455C116 -452 121 -451 125 -451C147 -451 203 -485 236 -518C243 -515 243 -511 243 -506C242 -491 233 -483 233 -470C233 -449 247 -432 270 -432C274 -432 276 -432 277 -434C278 -449 295 -455 329 -467C343 -471 360 -477 380 -485C380 -473 378 -471 378 -467C378 -464 382 -463 385 -463C390 -463 396 -466 407 -466C438 -466 460 -451 477 -440C488 -433 496 -427 504 -427C516 -427 526 -439 526 -452C526 -475 495 -487 460 -501C445 -507 429 -513 414 -520C411 -543 410 -545 410 -561C410 -570 414 -576 414 -583C414 -585 414 -588 412 -591C407 -602 394 -606 386 -607C384 -590 382 -586 338 -572C342 -599 355 -613 375 -623C398 -634 419 -643 432 -643C441 -643 450 -640 458 -638C466 -635 475 -633 483 -633C494 -633 502 -643 502 -659C502 -678 440 -679 430 -679C427 -679 416 -674 401 -667C370 -653 323 -631 297 -631C288 -644 279 -646 269 -655C262 -649 254 -647 247 -639C239 -631 241 -623 231 -612C236 -603 243 -597 243 -586C243 -543 163 -479 114 -455ZM158 -153C158 -138 186 -130 209 -130H221C225 -120 235 -81 246 -81C256 -81 255 -99 256 -108C266 -105 275 -100 288 -100C294 -100 298 -108 307 -111C323 -101 384 -75 403 -75C412 -75 423 -79 433 -83C440 -85 447 -88 452 -88C478 -88 498 -100 498 -123C498 -168 414 -182 388 -184C387 -193 386 -209 386 -218C386 -265 400 -288 400 -298C400 -308 392 -312 379 -312C368 -312 352 -308 331 -302C308 -296 279 -288 242 -282C238 -265 238 -241 238 -227C238 -199 246 -173 253 -169C260 -176 262 -183 266 -189C271 -191 277 -194 282 -194L281 -165C269 -161 259 -157 243 -157C237 -168 234 -179 231 -190C227 -206 224 -220 206 -223C203 -220 202 -219 202 -217C202 -210 205 -197 208 -182C210 -174 212 -165 213 -156H209C200 -156 192 -157 184 -158C176 -159 168 -160 159 -160C159 -157 158 -155 158 -153ZM162 -318C176 -301 219 -296 240 -296C259 -296 285 -304 312 -312C343 -321 377 -331 407 -331C433 -331 448 -331 461 -330C474 -336 479 -343 483 -351C480 -355 474 -358 446 -358C421 -358 404 -355 388 -352C381 -350 374 -349 366 -348C367 -360 371 -367 376 -374C380 -381 384 -388 384 -398C384 -415 375 -431 364 -435C347 -429 332 -414 329 -407C335 -398 344 -397 344 -387C344 -374 323 -331 315 -331C312 -331 310 -332 308 -336C312 -354 319 -369 319 -388C319 -393 316 -398 312 -398C302 -398 296 -382 287 -369C281 -359 275 -358 275 -350C279 -344 288 -347 288 -341C288 -322 279 -319 254 -319C240 -319 229 -322 218 -324C208 -327 199 -329 189 -329C177 -329 167 -321 162 -318ZM247 -136L281 -147C281 -142 282 -136 286 -131C277 -127 268 -123 254 -120ZM262 -224C262 -235 258 -231 282 -235V-212C275 -211 268 -210 263 -210C263 -215 262 -219 262 -224ZM262 -250V-268L286 -272C285 -266 284 -259 284 -252C278 -251 272 -249 266 -249ZM262 -530C262 -533 262 -536 263 -539C266 -535 278 -532 289 -532C292 -532 296 -533 298 -533C295 -519 288 -495 279 -486C276 -485 272 -485 268 -488C268 -490 269 -491 269 -493C269 -502 262 -515 262 -530ZM284 -564C298 -571 295 -613 297 -622C307 -622 326 -617 326 -605C326 -594 316 -574 311 -562C304 -558 299 -555 290 -555C286 -555 285 -559 284 -564ZM304 -217V-239C321 -242 335 -246 345 -249C344 -241 344 -232 344 -226C331 -222 318 -218 304 -217ZM304 -256C304 -263 306 -267 307 -277C321 -279 329 -284 347 -287C347 -279 346 -273 346 -264C333 -262 323 -259 304 -256ZM306 -172V-199C324 -204 335 -206 344 -209C345 -200 345 -194 345 -183C332 -178 321 -175 306 -172ZM307 -154C320 -158 333 -163 346 -165C345 -160 346 -154 347 -149C329 -144 321 -138 312 -138C309 -138 307 -146 307 -154ZM311 -486C311 -501 317 -520 328 -540C346 -547 363 -563 370 -563C378 -563 380 -556 380 -544C380 -539 379 -531 379 -523C379 -519 379 -514 380 -510C357 -498 324 -486 311 -486ZM322 -120C334 -125 337 -131 348 -134C350 -131 352 -124 354 -121C365 -121 382 -128 391 -134C392 -136 394 -141 394 -145C394 -153 391 -162 391 -166C410 -165 450 -154 450 -142C450 -117 418 -125 401 -118C387 -112 381 -101 367 -101C355 -101 328 -112 322 -120Z"></path>
  </g>
</svg>