<svg xmlns="http://www.w3.org/2000/svg" version="1.1" xmlns:xlink="http://www.w3.org/1999/xlink"
  width="469.800000" height="49.800000" viewBox="0 -830 7830 830">
  <g id="m6">
    <path transform="translate(-30, -35)" fill="#000000"
      d="M90 35H550C583 35 610 8 610 -25V-735C610 -768 583 -795 550 -795H90C57 -795 30 -768 30 -735V-25C30 8 57 35 90 35ZM60 -25V-735C60 -752 73 -765 90 -765H550C567 -765 580 -752 580 -735V-25C580 -8 567 5 550 5H90C73 5 60 -8 60 -25ZM136 -452C141 -447 153 -446 167 -446C184 -446 212 -455 238 -463C262 -471 285 -479 299 -479C304 -486 309 -491 312 -495C319 -502 322 -506 324 -512C312 -528 305 -538 286 -548C275 -546 266 -548 255 -540C245 -534 243 -525 236 -515C240 -511 243 -508 243 -500C243 -491 210 -479 180 -467C173 -464 166 -463 159 -461C150 -459 141 -457 136 -452ZM158 -153C158 -138 186 -130 209 -130H221C225 -120 235 -81 246 -81C256 -81 255 -99 256 -108C266 -105 275 -100 288 -100C294 -100 298 -108 307 -111C323 -101 384 -75 403 -75C412 -75 423 -79 433 -83C440 -85 447 -88 452 -88C478 -88 498 -100 498 -123C498 -168 414 -182 388 -184C387 -193 386 -209 386 -218C386 -265 400 -288 400 -298C400 -308 392 -312 379 -312C368 -312 352 -308 331 -302C308 -296 279 -288 242 -282C238 -265 238 -241 238 -227C238 -199 246 -173 253 -169C260 -176 262 -183 266 -189C271 -191 277 -194 282 -194L281 -165C269 -161 259 -157 243 -157C237 -168 234 -179 231 -190C227 -206 224 -220 206 -223C203 -220 202 -219 202 -217C202 -210 205 -197 208 -182C210 -174 212 -165 213 -156H209C200 -156 192 -157 184 -158C176 -159 168 -160 159 -160C159 -157 158 -155 158 -153ZM162 -318C176 -301 219 -296 240 -296C259 -296 285 -304 312 -312C343 -321 377 -331 407 -331C433 -331 448 -331 461 -330C474 -336 479 -343 483 -351C480 -355 474 -358 446 -358C421 -358 404 -355 388 -352C381 -350 374 -349 366 -348C367 -360 371 -367 376 -374C380 -381 384 -388 384 -398C384 -415 375 -431 364 -435C347 -429 332 -414 329 -407C335 -398 344 -397 344 -387C344 -374 323 -331 315 -331C312 -331 310 -332 308 -336C312 -354 319 -369 319 -388C319 -393 316 -398 312 -398C302 -398 296 -382 287 -369C281 -359 275 -358 275 -350C279 -344 288 -347 288 -341C288 -322 279 -319 254 -319C240 -319 229 -322 218 -324C208 -327 199 -329 189 -329C177 -329 167 -321 162 -318ZM170 -560C170 -556 199 -544 210 -544C231 -544 294 -565 335 -579C354 -585 369 -590 371 -590C388 -590 417 -577 441 -565C458 -557 473 -550 480 -550C493 -550 504 -564 504 -580C504 -596 489 -602 466 -611C445 -619 421 -630 410 -630C403 -630 393 -626 377 -619C361 -612 339 -602 308 -592C307 -595 305 -596 305 -600C305 -613 323 -620 323 -644C323 -660 307 -677 296 -689C283 -687 275 -689 269 -683C264 -679 258 -667 250 -658C255 -646 255 -637 255 -621C265 -612 271 -608 278 -596C280 -592 277 -588 276 -584C268 -581 236 -573 222 -573C216 -573 209 -574 204 -574C197 -574 170 -567 170 -560ZM247 -136L281 -147C281 -142 282 -136 286 -131C277 -127 268 -123 254 -120ZM262 -224C262 -235 258 -231 282 -235V-212C275 -211 268 -210 263 -210C263 -215 262 -219 262 -224ZM262 -250V-268L286 -272C285 -266 284 -259 284 -252C278 -251 272 -249 266 -249ZM304 -217V-239C321 -242 335 -246 345 -249C344 -241 344 -232 344 -226C331 -222 318 -218 304 -217ZM304 -256C304 -263 306 -267 307 -277C321 -279 329 -284 347 -287C347 -279 346 -273 346 -264C333 -262 323 -259 304 -256ZM306 -172V-199C324 -204 335 -206 344 -209C345 -200 345 -194 345 -183C332 -178 321 -175 306 -172ZM307 -154C320 -158 333 -163 346 -165C345 -160 346 -154 347 -149C329 -144 321 -138 312 -138C309 -138 307 -146 307 -154ZM322 -120C334 -125 337 -131 348 -134C350 -131 352 -124 354 -121C365 -121 382 -128 391 -134C392 -136 394 -141 394 -145C394 -153 391 -162 391 -166C410 -165 450 -154 450 -142C450 -117 418 -125 401 -118C387 -112 381 -101 367 -101C355 -101 328 -112 322 -120ZM324 -541C339 -508 397 -452 427 -436C433 -438 444 -456 444 -471C444 -495 376 -541 324 -541Z"></path>
  </g>
</svg>