<svg xmlns="http://www.w3.org/2000/svg" version="1.1" xmlns:xlink="http://www.w3.org/1999/xlink"
  width="469.800000" height="49.800000" viewBox="0 -830 7830 830">
  <g id="s6">
    <path transform="translate(-30, -35)" fill="#000000"
      d="M90 35H550C583 35 610 8 610 -25V-735C610 -768 583 -795 550 -795H90C57 -795 30 -768 30 -735V-25C30 8 57 35 90 35ZM60 -25V-735C60 -752 73 -765 90 -765H550C567 -765 580 -752 580 -735V-25C580 -8 567 5 550 5H90C73 5 60 -8 60 -25ZM104 -70C104 -56 116 -47 130 -47C146 -47 147 -56 165 -56C183 -56 184 -47 200 -47C214 -47 226 -56 226 -70C226 -80 219 -86 211 -91C205 -97 198 -102 198 -110V-157C198 -168 223 -181 223 -200C223 -219 198 -232 198 -243V-291C198 -299 205 -304 211 -310C219 -315 226 -321 226 -331C226 -347 210 -354 203 -354C190 -354 188 -368 165 -368C142 -368 140 -354 127 -354C120 -354 104 -347 104 -331C104 -321 111 -315 119 -310C125 -304 132 -299 132 -291V-243C132 -232 107 -219 107 -200C107 -181 132 -168 132 -157V-110C132 -102 125 -97 119 -91C111 -86 104 -80 104 -70ZM104 -425C104 -411 116 -402 130 -402C146 -402 147 -411 165 -411C183 -411 184 -402 200 -402C214 -402 226 -411 226 -425C226 -435 219 -441 211 -446C205 -452 198 -457 198 -465V-512C198 -523 223 -536 223 -555C223 -574 198 -587 198 -598V-646C198 -654 205 -659 211 -665C219 -670 226 -676 226 -686C226 -702 210 -709 203 -709C190 -709 188 -723 165 -723C142 -723 140 -709 127 -709C120 -709 104 -702 104 -686C104 -676 111 -670 119 -665C125 -659 132 -654 132 -646V-598C132 -587 107 -574 107 -555C107 -536 132 -523 132 -512V-465C132 -457 125 -452 119 -446C111 -441 104 -435 104 -425ZM132 -188C132 -192 136 -195 142 -195H188C194 -195 198 -192 198 -188C198 -184 194 -180 188 -180H142C136 -180 132 -183 132 -188ZM132 -213C132 -217 136 -220 142 -220H188C194 -220 198 -217 198 -213C198 -209 194 -205 188 -205H142C136 -205 132 -208 132 -213ZM132 -543C132 -547 136 -550 142 -550H188C194 -550 198 -547 198 -543C198 -539 194 -535 188 -535H142C136 -535 132 -538 132 -543ZM132 -568C132 -572 136 -575 142 -575H188C194 -575 198 -572 198 -568C198 -564 194 -560 188 -560H142C136 -560 132 -563 132 -568ZM140 -330C140 -342 151 -352 165 -352C179 -352 190 -342 190 -330C190 -323 186 -316 180 -312V-230H150V-312C144 -316 140 -323 140 -330ZM140 -685C140 -697 151 -707 165 -707C179 -707 190 -697 190 -685C190 -678 186 -671 180 -667V-585H150V-667C144 -671 140 -678 140 -685ZM150 -82V-170H180V-82C180 -74 175 -69 165 -69C155 -69 150 -74 150 -82ZM150 -437V-525H180V-437C180 -429 175 -424 165 -424C155 -424 150 -429 150 -437ZM259 -70C259 -56 271 -47 285 -47C301 -47 302 -56 320 -56C338 -56 339 -47 355 -47C369 -47 381 -56 381 -70C381 -80 374 -86 366 -91C360 -97 353 -102 353 -110V-157C353 -168 378 -181 378 -200C378 -219 353 -232 353 -243V-291C353 -299 360 -304 366 -310C374 -315 381 -321 381 -331C381 -347 365 -354 358 -354C345 -354 343 -368 320 -368C297 -368 295 -354 282 -354C275 -354 259 -347 259 -331C259 -321 266 -315 274 -310C280 -304 287 -299 287 -291V-243C287 -232 262 -219 262 -200C262 -181 287 -168 287 -157V-110C287 -102 280 -97 274 -91C266 -86 259 -80 259 -70ZM259 -425C259 -411 271 -402 285 -402C301 -402 302 -411 320 -411C338 -411 339 -402 355 -402C369 -402 381 -411 381 -425C381 -435 374 -441 366 -446C360 -452 353 -457 353 -465V-512C353 -523 378 -536 378 -555C378 -574 353 -587 353 -598V-646C353 -654 360 -659 366 -665C374 -670 381 -676 381 -686C381 -702 365 -709 358 -709C345 -709 343 -723 320 -723C297 -723 295 -709 282 -709C275 -709 259 -702 259 -686C259 -676 266 -670 274 -665C280 -659 287 -654 287 -646V-598C287 -587 262 -574 262 -555C262 -536 287 -523 287 -512V-465C287 -457 280 -452 274 -446C266 -441 259 -435 259 -425ZM287 -188C287 -192 291 -195 297 -195H343C349 -195 353 -192 353 -188C353 -184 349 -180 343 -180H297C291 -180 287 -183 287 -188ZM287 -213C287 -217 291 -220 297 -220H343C349 -220 353 -217 353 -213C353 -209 349 -205 343 -205H297C291 -205 287 -208 287 -213ZM287 -543C287 -547 291 -550 297 -550H343C349 -550 353 -547 353 -543C353 -539 349 -535 343 -535H297C291 -535 287 -538 287 -543ZM287 -568C287 -572 291 -575 297 -575H343C349 -575 353 -572 353 -568C353 -564 349 -560 343 -560H297C291 -560 287 -563 287 -568ZM295 -330C295 -342 306 -352 320 -352C334 -352 345 -342 345 -330C345 -323 341 -316 335 -312V-230H305V-312C299 -316 295 -323 295 -330ZM295 -685C295 -697 306 -707 320 -707C334 -707 345 -697 345 -685C345 -678 341 -671 335 -667V-585H305V-667C299 -671 295 -678 295 -685ZM305 -82V-170H335V-82C335 -74 330 -69 320 -69C310 -69 305 -74 305 -82ZM305 -437V-525H335V-437C335 -429 330 -424 320 -424C310 -424 305 -429 305 -437ZM414 -70C414 -56 426 -47 440 -47C456 -47 457 -56 475 -56C493 -56 494 -47 510 -47C524 -47 536 -56 536 -70C536 -80 529 -86 521 -91C515 -97 508 -102 508 -110V-157C508 -168 533 -181 533 -200C533 -219 508 -232 508 -243V-291C508 -299 515 -304 521 -310C529 -315 536 -321 536 -331C536 -347 520 -354 513 -354C500 -354 498 -368 475 -368C452 -368 450 -354 437 -354C430 -354 414 -347 414 -331C414 -321 421 -315 429 -310C435 -304 442 -299 442 -291V-243C442 -232 417 -219 417 -200C417 -181 442 -168 442 -157V-110C442 -102 435 -97 429 -91C421 -86 414 -80 414 -70ZM414 -425C414 -411 426 -402 440 -402C456 -402 457 -411 475 -411C493 -411 494 -402 510 -402C524 -402 536 -411 536 -425C536 -435 529 -441 521 -446C515 -452 508 -457 508 -465V-512C508 -523 533 -536 533 -555C533 -574 508 -587 508 -598V-646C508 -654 515 -659 521 -665C529 -670 536 -676 536 -686C536 -702 520 -709 513 -709C500 -709 498 -723 475 -723C452 -723 450 -709 437 -709C430 -709 414 -702 414 -686C414 -676 421 -670 429 -665C435 -659 442 -654 442 -646V-598C442 -587 417 -574 417 -555C417 -536 442 -523 442 -512V-465C442 -457 435 -452 429 -446C421 -441 414 -435 414 -425ZM442 -188C442 -192 446 -195 452 -195H498C504 -195 508 -192 508 -188C508 -184 504 -180 498 -180H452C446 -180 442 -183 442 -188ZM442 -213C442 -217 446 -220 452 -220H498C504 -220 508 -217 508 -213C508 -209 504 -205 498 -205H452C446 -205 442 -208 442 -213ZM442 -543C442 -547 446 -550 452 -550H498C504 -550 508 -547 508 -543C508 -539 504 -535 498 -535H452C446 -535 442 -538 442 -543ZM442 -568C442 -572 446 -575 452 -575H498C504 -575 508 -572 508 -568C508 -564 504 -560 498 -560H452C446 -560 442 -563 442 -568ZM450 -330C450 -342 461 -352 475 -352C489 -352 500 -342 500 -330C500 -323 496 -316 490 -312V-230H460V-312C454 -316 450 -323 450 -330ZM450 -685C450 -697 461 -707 475 -707C489 -707 500 -697 500 -685C500 -678 496 -671 490 -667V-585H460V-667C454 -671 450 -678 450 -685ZM460 -82V-170H490V-82C490 -74 485 -69 475 -69C465 -69 460 -74 460 -82ZM460 -437V-525H490V-437C490 -429 485 -424 475 -424C465 -424 460 -429 460 -437Z"></path>
  </g>
</svg>