<svg xmlns="http://www.w3.org/2000/svg" version="1.1" xmlns:xlink="http://www.w3.org/1999/xlink"
    width="469.800000" height="49.800000" viewBox="0 -830 7830 830">
    <g id="z6">
        <path transform="translate(-30, -35)" fill="#000000"
            d="M90 35H550C583 35 610 8 610 -25V-735C610 -768 583 -795 550 -795H90C57 -795 30 -768 30 -735V-25C30 8 57 35 90 35ZM60 -25V-735C60 -752 73 -765 90 -765H550C567 -765 580 -752 580 -735V-25C580 -8 567 5 550 5H90C73 5 60 -8 60 -25ZM111 -296C162 -306 187 -324 229 -374C242 -382 248 -384 254 -384C258 -384 260 -384 264 -382C264 -372 263 -367 256 -358C240 -351 226 -341 212 -331C203 -324 194 -318 184 -312C187 -307 194 -304 201 -304C210 -304 217 -311 226 -318C233 -325 242 -333 252 -335C259 -330 268 -323 269 -316C262 -309 169 -267 158 -267C144 -267 137 -272 123 -278C127 -264 138 -243 149 -243C156 -243 164 -242 171 -245C189 -225 205 -198 226 -198C246 -198 255 -218 269 -250C274 -260 279 -273 286 -286C300 -289 320 -290 332 -292C327 -257 302 -239 284 -226C275 -218 267 -213 267 -207C267 -200 274 -194 281 -194C292 -194 340 -221 350 -235C354 -241 357 -276 359 -295C365 -295 370 -296 375 -296C387 -296 396 -295 407 -295C433 -295 442 -296 446 -305C441 -312 429 -319 416 -322C408 -324 405 -316 397 -316C391 -316 378 -314 361 -314C362 -333 363 -340 365 -352C377 -359 393 -359 398 -364C397 -368 393 -379 384 -379C373 -379 364 -374 355 -370C348 -366 342 -363 335 -363C329 -363 330 -365 327 -369C347 -438 353 -424 353 -444C353 -461 336 -475 328 -480C329 -473 329 -470 329 -465C329 -460 326 -421 316 -385C306 -379 293 -374 283 -372C282 -377 284 -388 287 -393C295 -399 305 -401 310 -410C308 -414 301 -418 294 -418C285 -418 281 -409 272 -409C265 -409 262 -411 258 -415C263 -423 268 -431 273 -438C290 -464 304 -486 321 -520C337 -503 359 -466 370 -445C368 -439 364 -434 360 -427C368 -427 371 -428 377 -431C403 -390 408 -372 413 -359C416 -350 418 -343 425 -332C443 -324 460 -314 474 -305C497 -291 515 -280 529 -280C498 -343 488 -351 471 -363C457 -374 437 -388 395 -446C406 -454 416 -471 430 -471C434 -471 435 -474 435 -478C435 -486 423 -501 410 -502C408 -495 405 -482 383 -460C375 -469 368 -481 362 -490C377 -511 390 -534 398 -555C402 -563 409 -564 409 -570C409 -581 395 -601 388 -603C383 -598 377 -582 371 -564C364 -544 357 -522 348 -510C341 -518 334 -525 329 -533C332 -541 336 -545 336 -553C336 -562 326 -568 318 -568C310 -568 303 -560 296 -550C291 -543 286 -536 279 -530C258 -512 218 -485 213 -481C216 -478 220 -477 225 -477C237 -477 246 -482 257 -487C266 -492 276 -497 287 -498C278 -474 256 -443 248 -433C240 -442 203 -476 178 -479C179 -464 194 -450 209 -436C218 -428 227 -420 231 -412C205 -378 162 -337 111 -296ZM179 -250C200 -267 229 -282 255 -294C259 -291 261 -288 261 -284C261 -276 236 -234 221 -234C205 -234 186 -243 179 -250ZM267 -344C278 -355 296 -363 310 -365C306 -351 301 -340 301 -334C306 -335 314 -344 320 -351C325 -349 328 -348 341 -348C341 -337 340 -326 337 -311C324 -309 313 -308 293 -304C292 -310 287 -318 284 -324C279 -332 270 -328 267 -344ZM382 -259C402 -233 405 -222 409 -213C411 -207 413 -202 419 -193C421 -193 422 -192 424 -192C444 -192 472 -204 472 -226C472 -247 437 -265 407 -265C397 -265 387 -264 382 -259Z"></path>
    </g>
</svg>