<svg xmlns="http://www.w3.org/2000/svg" version="1.1" xmlns:xlink="http://www.w3.org/1999/xlink"
  width="469.800000" height="49.800000" viewBox="0 -830 7830 830">
  <g id="p7">
    <path transform="translate(-30, -35)" fill="#000000"
      d="M90 35H550C583 35 610 8 610 -25V-735C610 -768 583 -795 550 -795H90C57 -795 30 -768 30 -735V-25C30 8 57 35 90 35ZM60 -25V-735C60 -752 73 -765 90 -765H550C567 -765 580 -752 580 -735V-25C580 -8 567 5 550 5H90C73 5 60 -8 60 -25ZM95 -630C95 -580 135 -540 185 -540C202 -540 217 -545 231 -552C230 -548 230 -544 230 -540C230 -490 270 -450 320 -450C337 -450 352 -455 366 -462C365 -458 365 -454 365 -450C365 -427 374 -405 388 -389C358 -385 333 -367 320 -342C305 -370 275 -390 240 -390C190 -390 150 -350 150 -300C150 -265 170 -235 198 -220C170 -205 150 -175 150 -140C150 -90 190 -50 240 -50C275 -50 305 -70 320 -98C335 -70 365 -50 400 -50C450 -50 490 -90 490 -140C490 -175 470 -205 442 -220C470 -235 490 -265 490 -300C490 -323 481 -345 467 -361C511 -366 545 -404 545 -450C545 -500 505 -540 455 -540C438 -540 423 -535 409 -528C410 -532 410 -536 410 -540C410 -590 370 -630 320 -630C303 -630 288 -625 274 -618C275 -622 275 -626 275 -630C275 -680 235 -720 185 -720C135 -720 95 -680 95 -630ZM115 -630C115 -669 146 -700 185 -700C224 -700 255 -669 255 -630C255 -591 224 -560 185 -560C146 -560 115 -591 115 -630ZM130 -630C130 -600 155 -575 185 -575C215 -575 240 -600 240 -630C240 -660 215 -685 185 -685C155 -685 130 -660 130 -630ZM140 -626V-630C140 -641 144 -652 151 -660H160L166 -652C164 -639 160 -641 160 -630C158 -624 153 -621 147 -620ZM146 -607L149 -616L158 -619L164 -616C168 -611 172 -608 178 -606L183 -601V-591L175 -586C163 -589 153 -597 146 -607ZM164 -663L167 -671C173 -674 179 -675 185 -675C191 -675 197 -674 203 -671L206 -663L200 -655L193 -654C191 -655 188 -655 185 -655C182 -655 179 -655 177 -654L170 -655ZM170 -140C170 -179 201 -210 240 -210C279 -210 310 -179 310 -140C310 -101 279 -70 240 -70C201 -70 170 -101 170 -140ZM170 -300C170 -339 201 -370 240 -370C279 -370 310 -339 310 -300C310 -261 279 -230 240 -230C201 -230 170 -261 170 -300ZM170 -630C170 -638 177 -645 185 -645C193 -645 200 -638 200 -630C200 -622 193 -615 185 -615C177 -615 170 -622 170 -630ZM180 -630C180 -627 182 -625 185 -625C188 -625 190 -627 190 -630C190 -633 188 -635 185 -635C182 -635 180 -633 180 -630ZM185 -140C185 -110 210 -85 240 -85C270 -85 295 -110 295 -140C295 -170 270 -195 240 -195C210 -195 185 -170 185 -140ZM185 -300C185 -270 210 -245 240 -245C270 -245 295 -270 295 -300C295 -330 270 -355 240 -355C210 -355 185 -330 185 -300ZM187 -591V-601C189 -603 207 -617 212 -619L221 -616L224 -607C217 -597 207 -589 195 -586ZM195 -136V-140C195 -151 199 -162 206 -170H215L221 -162C219 -149 215 -151 215 -140C213 -134 208 -131 202 -130ZM195 -296V-300C195 -311 199 -322 206 -330H215L221 -322C219 -309 215 -311 215 -300C213 -294 208 -291 202 -290ZM201 -117L204 -126L213 -129L219 -126C223 -121 227 -118 233 -116L238 -111V-101L230 -96C218 -99 208 -107 201 -117ZM201 -277L204 -286L213 -289L219 -286C223 -281 227 -278 233 -276L238 -271V-261L230 -256C218 -259 208 -267 201 -277ZM204 -652L210 -660H219C226 -652 230 -641 230 -630V-626L223 -620L214 -623L210 -630C210 -641 206 -639 204 -652ZM219 -173L222 -181C228 -184 234 -185 240 -185C246 -185 252 -184 258 -181L261 -173L255 -165L248 -164C246 -165 243 -165 240 -165C237 -165 234 -165 232 -164L225 -165ZM219 -333L222 -341C228 -344 234 -345 240 -345C246 -345 252 -344 258 -341L261 -333L255 -325L248 -324C246 -325 243 -325 240 -325C237 -325 234 -325 232 -324L225 -325ZM225 -140C225 -148 232 -155 240 -155C248 -155 255 -148 255 -140C255 -132 248 -125 240 -125C232 -125 225 -132 225 -140ZM225 -300C225 -308 232 -315 240 -315C248 -315 255 -308 255 -300C255 -292 248 -285 240 -285C232 -285 225 -292 225 -300ZM235 -140C235 -137 237 -135 240 -135C243 -135 245 -137 245 -140C245 -143 243 -145 240 -145C237 -145 235 -143 235 -140ZM235 -300C235 -297 237 -295 240 -295C243 -295 245 -297 245 -300C245 -303 243 -305 240 -305C237 -305 235 -303 235 -300ZM242 -101V-111C244 -113 262 -127 267 -129L276 -126L279 -117C272 -107 262 -99 250 -96ZM242 -261V-271C244 -273 262 -287 267 -289L276 -286L279 -277C272 -267 262 -259 250 -256ZM250 -540C250 -579 281 -610 320 -610C359 -610 390 -579 390 -540C390 -501 359 -470 320 -470C281 -470 250 -501 250 -540ZM259 -162L265 -170H274C281 -162 285 -151 285 -140V-136L278 -130L269 -133L265 -140C265 -151 261 -149 259 -162ZM259 -322L265 -330H274C281 -322 285 -311 285 -300V-296L278 -290L269 -293L265 -300C265 -311 261 -309 259 -322ZM265 -540C265 -510 290 -485 320 -485C350 -485 375 -510 375 -540C375 -570 350 -595 320 -595C290 -595 265 -570 265 -540ZM275 -536V-540C275 -551 279 -562 286 -570H295L301 -562C299 -549 295 -551 295 -540C293 -534 288 -531 282 -530ZM281 -220C298 -229 311 -242 320 -258C329 -242 342 -229 359 -220C342 -211 329 -198 320 -182C311 -198 298 -211 281 -220ZM281 -517L284 -526L293 -529L299 -526C303 -521 307 -518 313 -516L318 -511V-501L310 -496C298 -499 288 -507 281 -517ZM299 -573L302 -581C308 -584 314 -585 320 -585C326 -585 332 -584 338 -581L341 -573L335 -565L328 -564C326 -565 323 -565 320 -565C317 -565 314 -565 312 -564L305 -565ZM305 -540C305 -548 312 -555 320 -555C328 -555 335 -548 335 -540C335 -532 328 -525 320 -525C312 -525 305 -532 305 -540ZM315 -540C315 -537 317 -535 320 -535C323 -535 325 -537 325 -540C325 -543 323 -545 320 -545C317 -545 315 -543 315 -540ZM322 -501V-511C324 -513 342 -527 347 -529L356 -526L359 -517C352 -507 342 -499 330 -496ZM330 -140C330 -179 361 -210 400 -210C439 -210 470 -179 470 -140C470 -101 439 -70 400 -70C361 -70 330 -101 330 -140ZM330 -300C330 -339 361 -370 400 -370C439 -370 470 -339 470 -300C470 -261 439 -230 400 -230C361 -230 330 -261 330 -300ZM339 -562L345 -570H354C361 -562 365 -551 365 -540V-536L358 -530L349 -533L345 -540C345 -551 341 -549 339 -562ZM345 -140C345 -110 370 -85 400 -85C430 -85 455 -110 455 -140C455 -170 430 -195 400 -195C370 -195 345 -170 345 -140ZM345 -300C345 -270 370 -245 400 -245C430 -245 455 -270 455 -300C455 -330 430 -355 400 -355C370 -355 345 -330 345 -300ZM355 -136V-140C355 -151 359 -162 366 -170H375L381 -162C379 -149 375 -151 375 -140C373 -134 368 -131 362 -130ZM355 -296V-300C355 -311 359 -322 366 -330H375L381 -322C379 -309 375 -311 375 -300C373 -294 368 -291 362 -290ZM361 -117L364 -126L373 -129L379 -126C383 -121 387 -118 393 -116L398 -111V-101L390 -96C378 -99 368 -107 361 -117ZM361 -277L364 -286L373 -289L379 -286C383 -281 387 -278 393 -276L398 -271V-261L390 -256C378 -259 368 -267 361 -277ZM379 -173L382 -181C388 -184 394 -185 400 -185C406 -185 412 -184 418 -181L421 -173L415 -165L408 -164C406 -165 403 -165 400 -165C397 -165 394 -165 392 -164L385 -165ZM379 -333L382 -341C388 -344 394 -345 400 -345C406 -345 412 -344 418 -341L421 -333L415 -325L408 -324C406 -325 403 -325 400 -325C397 -325 394 -325 392 -324L385 -325ZM385 -140C385 -148 392 -155 400 -155C408 -155 415 -148 415 -140C415 -132 408 -125 400 -125C392 -125 385 -132 385 -140ZM385 -300C385 -308 392 -315 400 -315C408 -315 415 -308 415 -300C415 -292 408 -285 400 -285C392 -285 385 -292 385 -300ZM385 -450C385 -489 416 -520 455 -520C494 -520 525 -489 525 -450C525 -411 494 -380 455 -380C416 -380 385 -411 385 -450ZM395 -140C395 -137 397 -135 400 -135C403 -135 405 -137 405 -140C405 -143 403 -145 400 -145C397 -145 395 -143 395 -140ZM395 -300C395 -297 397 -295 400 -295C403 -295 405 -297 405 -300C405 -303 403 -305 400 -305C397 -305 395 -303 395 -300ZM400 -450C400 -420 425 -395 455 -395C485 -395 510 -420 510 -450C510 -480 485 -505 455 -505C425 -505 400 -480 400 -450ZM402 -101V-111C404 -113 422 -127 427 -129L436 -126L439 -117C432 -107 422 -99 410 -96ZM402 -261V-271C404 -273 422 -287 427 -289L436 -286L439 -277C432 -267 422 -259 410 -256ZM410 -446V-450C410 -461 414 -472 421 -480H430L436 -472C434 -459 430 -461 430 -450C428 -444 423 -441 417 -440ZM416 -427L419 -436L428 -439L434 -436C438 -431 442 -428 448 -426L453 -421V-411L445 -406C433 -409 423 -417 416 -427ZM419 -162L425 -170H434C441 -162 445 -151 445 -140V-136L438 -130L429 -133L425 -140C425 -151 421 -149 419 -162ZM419 -322L425 -330H434C441 -322 445 -311 445 -300V-296L438 -290L429 -293L425 -300C425 -311 421 -309 419 -322ZM434 -483L437 -491C443 -494 449 -495 455 -495C461 -495 467 -494 473 -491L476 -483L470 -475L463 -474C461 -475 458 -475 455 -475C452 -475 449 -475 447 -474L440 -475ZM440 -450C440 -458 447 -465 455 -465C463 -465 470 -458 470 -450C470 -442 463 -435 455 -435C447 -435 440 -442 440 -450ZM450 -450C450 -447 452 -445 455 -445C458 -445 460 -447 460 -450C460 -453 458 -455 455 -455C452 -455 450 -453 450 -450ZM457 -411V-421C459 -423 477 -437 482 -439L491 -436L494 -427C487 -417 477 -409 465 -406ZM474 -472L480 -480H489C496 -472 500 -461 500 -450V-446L493 -440L484 -443L480 -450C480 -461 476 -459 474 -472Z"></path>
  </g>
</svg>