<svg xmlns="http://www.w3.org/2000/svg" version="1.1" xmlns:xlink="http://www.w3.org/1999/xlink"
  width="469.800000" height="49.800000" viewBox="0 -830 7830 830">
  <g id="s7">
    <path transform="translate(-30, -35)" fill="#000000"
      d="M90 35H550C583 35 610 8 610 -25V-735C610 -768 583 -795 550 -795H90C57 -795 30 -768 30 -735V-25C30 8 57 35 90 35ZM60 -25V-735C60 -752 73 -765 90 -765H550C567 -765 580 -752 580 -735V-25C580 -8 567 5 550 5H90C73 5 60 -8 60 -25ZM104 -56C104 -42 116 -33 130 -33C146 -33 144 -42 163 -42C182 -42 180 -33 196 -33C210 -33 222 -42 222 -56C222 -75 194 -79 194 -91V-98C194 -109 217 -118 217 -134C217 -150 194 -159 194 -170V-177C194 -189 222 -193 222 -212C222 -228 208 -235 201 -235C188 -235 186 -249 163 -249C140 -249 138 -235 125 -235C118 -235 104 -228 104 -212C104 -193 132 -189 132 -177V-170C132 -159 109 -150 109 -134C109 -118 132 -109 132 -98V-91C132 -79 104 -75 104 -56ZM104 -300C104 -286 116 -277 130 -277C146 -277 144 -286 163 -286C182 -286 180 -277 196 -277C210 -277 222 -286 222 -300C222 -319 194 -323 194 -335V-342C194 -353 217 -362 217 -378C217 -394 194 -403 194 -414V-421C194 -433 222 -437 222 -456C222 -472 208 -479 201 -479C188 -479 186 -493 163 -493C140 -493 138 -479 125 -479C118 -479 104 -472 104 -456C104 -437 132 -433 132 -421V-414C132 -403 109 -394 109 -378C109 -362 132 -353 132 -342V-335C132 -323 104 -319 104 -300ZM130 -134C130 -138 134 -141 140 -141H186C192 -141 196 -138 196 -134C196 -130 192 -126 186 -126H140C134 -126 130 -129 130 -134ZM130 -378C130 -382 134 -385 140 -385H186C192 -385 196 -382 196 -378C196 -374 192 -370 186 -370H140C134 -370 130 -373 130 -378ZM138 -213C138 -225 149 -236 163 -236C177 -236 188 -225 188 -213C188 -206 181 -199 178 -196V-151H148V-196C145 -199 138 -206 138 -213ZM138 -457C138 -469 149 -480 163 -480C177 -480 188 -469 188 -457C188 -450 181 -443 178 -440V-395H148V-440C145 -443 138 -450 138 -457ZM148 -68V-116H178V-68C178 -60 173 -53 163 -53C153 -53 148 -60 148 -68ZM148 -312V-360H178V-312C178 -304 173 -297 163 -297C153 -297 148 -304 148 -312ZM261 -56C261 -42 273 -33 287 -33C303 -33 301 -42 320 -42C339 -42 337 -33 353 -33C367 -33 379 -42 379 -56C379 -75 351 -79 351 -91V-98C351 -109 374 -118 374 -134C374 -150 351 -159 351 -170V-177C351 -189 379 -193 379 -212C379 -228 365 -235 358 -235C345 -235 343 -249 320 -249C297 -249 295 -235 282 -235C275 -235 261 -228 261 -212C261 -193 289 -189 289 -177V-170C289 -159 266 -150 266 -134C266 -118 289 -109 289 -98V-91C289 -79 261 -75 261 -56ZM261 -300C261 -286 273 -277 287 -277C303 -277 301 -286 320 -286C339 -286 337 -277 353 -277C367 -277 379 -286 379 -300C379 -319 351 -323 351 -335V-342C351 -353 374 -362 374 -378C374 -394 351 -403 351 -414V-421C351 -433 379 -437 379 -456C379 -472 365 -479 358 -479C345 -479 343 -493 320 -493C297 -493 295 -479 282 -479C275 -479 261 -472 261 -456C261 -437 289 -433 289 -421V-414C289 -403 266 -394 266 -378C266 -362 289 -353 289 -342V-335C289 -323 261 -319 261 -300ZM261 -544C261 -530 273 -521 287 -521C303 -521 301 -530 320 -530C339 -530 337 -521 353 -521C367 -521 379 -530 379 -544C379 -563 351 -567 351 -579V-586C351 -597 374 -606 374 -622C374 -638 351 -647 351 -658V-665C351 -677 379 -681 379 -700C379 -716 365 -723 358 -723C345 -723 343 -737 320 -737C297 -737 295 -723 282 -723C275 -723 261 -716 261 -700C261 -681 289 -677 289 -665V-658C289 -647 266 -638 266 -622C266 -606 289 -597 289 -586V-579C289 -567 261 -563 261 -544ZM287 -134C287 -138 291 -141 297 -141H343C349 -141 353 -138 353 -134C353 -130 349 -126 343 -126H297C291 -126 287 -129 287 -134ZM287 -378C287 -382 291 -385 297 -385H343C349 -385 353 -382 353 -378C353 -374 349 -370 343 -370H297C291 -370 287 -373 287 -378ZM287 -622C287 -626 291 -629 297 -629H343C349 -629 353 -626 353 -622C353 -618 349 -614 343 -614H297C291 -614 287 -617 287 -622ZM295 -213C295 -225 306 -236 320 -236C334 -236 345 -225 345 -213C345 -206 338 -199 335 -196V-151H305V-196C302 -199 295 -206 295 -213ZM295 -457C295 -469 306 -480 320 -480C334 -480 345 -469 345 -457C345 -450 338 -443 335 -440V-395H305V-440C302 -443 295 -450 295 -457ZM295 -701C295 -713 306 -724 320 -724C334 -724 345 -713 345 -701C345 -694 338 -687 335 -684V-639H305V-684C302 -687 295 -694 295 -701ZM305 -68V-116H335V-68C335 -60 330 -53 320 -53C310 -53 305 -60 305 -68ZM305 -312V-360H335V-312C335 -304 330 -297 320 -297C310 -297 305 -304 305 -312ZM305 -556V-604H335V-556C335 -548 330 -541 320 -541C310 -541 305 -548 305 -556ZM418 -56C418 -42 430 -33 444 -33C460 -33 458 -42 477 -42C496 -42 494 -33 510 -33C524 -33 536 -42 536 -56C536 -75 508 -79 508 -91V-98C508 -109 531 -118 531 -134C531 -150 508 -159 508 -170V-177C508 -189 536 -193 536 -212C536 -228 522 -235 515 -235C502 -235 500 -249 477 -249C454 -249 452 -235 439 -235C432 -235 418 -228 418 -212C418 -193 446 -189 446 -177V-170C446 -159 423 -150 423 -134C423 -118 446 -109 446 -98V-91C446 -79 418 -75 418 -56ZM418 -300C418 -286 430 -277 444 -277C460 -277 458 -286 477 -286C496 -286 494 -277 510 -277C524 -277 536 -286 536 -300C536 -319 508 -323 508 -335V-342C508 -353 531 -362 531 -378C531 -394 508 -403 508 -414V-421C508 -433 536 -437 536 -456C536 -472 522 -479 515 -479C502 -479 500 -493 477 -493C454 -493 452 -479 439 -479C432 -479 418 -472 418 -456C418 -437 446 -433 446 -421V-414C446 -403 423 -394 423 -378C423 -362 446 -353 446 -342V-335C446 -323 418 -319 418 -300ZM444 -134C444 -138 448 -141 454 -141H500C506 -141 510 -138 510 -134C510 -130 506 -126 500 -126H454C448 -126 444 -129 444 -134ZM444 -378C444 -382 448 -385 454 -385H500C506 -385 510 -382 510 -378C510 -374 506 -370 500 -370H454C448 -370 444 -373 444 -378ZM452 -213C452 -225 463 -236 477 -236C491 -236 502 -225 502 -213C502 -206 495 -199 492 -196V-151H462V-196C459 -199 452 -206 452 -213ZM452 -457C452 -469 463 -480 477 -480C491 -480 502 -469 502 -457C502 -450 495 -443 492 -440V-395H462V-440C459 -443 452 -450 452 -457ZM462 -68V-116H492V-68C492 -60 487 -53 477 -53C467 -53 462 -60 462 -68ZM462 -312V-360H492V-312C492 -304 487 -297 477 -297C467 -297 462 -304 462 -312Z"></path>
  </g>
</svg>