<svg xmlns="http://www.w3.org/2000/svg" version="1.1" xmlns:xlink="http://www.w3.org/1999/xlink"
    width="469.800000" height="49.800000" viewBox="0 -830 7830 830">
    <g id="z7">
        <path transform="translate(-30, -35)" fill="#000000"
            d="M90 35H550C583 35 610 8 610 -25V-735C610 -768 583 -795 550 -795H90C57 -795 30 -768 30 -735V-25C30 8 57 35 90 35ZM60 -25V-735C60 -752 73 -765 90 -765H550C567 -765 580 -752 580 -735V-25C580 -8 567 5 550 5H90C73 5 60 -8 60 -25ZM156 -437C156 -420 179 -400 200 -382C217 -368 232 -354 232 -345C232 -338 233 -330 240 -330C253 -330 264 -334 274 -337C282 -340 290 -343 298 -343C298 -327 299 -308 299 -290C300 -274 300 -258 300 -247C300 -228 299 -212 299 -199C298 -190 298 -182 298 -175C298 -145 300 -106 310 -98C320 -108 332 -148 332 -184C332 -195 331 -214 330 -230C329 -244 328 -257 328 -264C328 -273 330 -328 330 -344C372 -342 376 -337 390 -337C398 -337 404 -339 404 -355C404 -360 412 -371 423 -384C431 -394 440 -406 448 -418C453 -422 466 -425 476 -425C480 -425 484 -430 484 -434C484 -452 464 -468 446 -488C434 -503 430 -506 424 -506C414 -506 396 -499 374 -490L334 -475C340 -540 362 -528 362 -548C362 -566 332 -609 304 -620C290 -610 266 -594 266 -570C266 -564 269 -560 270 -554C300 -552 297 -497 298 -464C292 -458 226 -434 218 -434C209 -434 198 -443 186 -454C179 -460 172 -466 164 -471C158 -464 156 -451 156 -437ZM230 -419C234 -417 236 -417 238 -417C246 -417 258 -423 272 -429C280 -433 289 -437 298 -440V-365C287 -362 276 -360 266 -359C258 -375 248 -393 230 -419ZM330 -368C330 -394 332 -428 334 -452C350 -458 384 -467 396 -467C404 -467 412 -463 412 -455C412 -433 380 -393 362 -367C348 -367 340 -368 330 -368Z"></path>
    </g>
</svg>