<svg xmlns="http://www.w3.org/2000/svg" version="1.1" xmlns:xlink="http://www.w3.org/1999/xlink"
  width="469.800000" height="49.800000" viewBox="0 -830 7830 830">
  <g id="p8">
    <path transform="translate(-30, -35)" fill="#000000"
      d="M90 35H550C583 35 610 8 610 -25V-735C610 -768 583 -795 550 -795H90C57 -795 30 -768 30 -735V-25C30 8 57 35 90 35ZM60 -25V-735C60 -752 73 -765 90 -765H550C567 -765 580 -752 580 -735V-25C580 -8 567 5 550 5H90C73 5 60 -8 60 -25ZM150 -140C150 -90 190 -50 240 -50C275 -50 305 -70 320 -98C335 -70 365 -50 400 -50C450 -50 490 -90 490 -140C490 -175 470 -205 442 -220C470 -235 490 -265 490 -300C490 -335 470 -365 442 -380C470 -395 490 -425 490 -460C490 -495 470 -525 442 -540C470 -555 490 -585 490 -620C490 -670 450 -710 400 -710C365 -710 335 -690 320 -662C305 -690 275 -710 240 -710C190 -710 150 -670 150 -620C150 -585 170 -555 198 -540C170 -525 150 -495 150 -460C150 -425 170 -395 198 -380C170 -365 150 -335 150 -300C150 -265 170 -235 198 -220C170 -205 150 -175 150 -140ZM170 -140C170 -179 201 -210 240 -210C279 -210 310 -179 310 -140C310 -101 279 -70 240 -70C201 -70 170 -101 170 -140ZM170 -300C170 -339 201 -370 240 -370C279 -370 310 -339 310 -300C310 -261 279 -230 240 -230C201 -230 170 -261 170 -300ZM170 -460C170 -499 201 -530 240 -530C279 -530 310 -499 310 -460C310 -421 279 -390 240 -390C201 -390 170 -421 170 -460ZM170 -620C170 -659 201 -690 240 -690C279 -690 310 -659 310 -620C310 -581 279 -550 240 -550C201 -550 170 -581 170 -620ZM185 -140C185 -110 210 -85 240 -85C270 -85 295 -110 295 -140C295 -170 270 -195 240 -195C210 -195 185 -170 185 -140ZM185 -300C185 -270 210 -245 240 -245C270 -245 295 -270 295 -300C295 -330 270 -355 240 -355C210 -355 185 -330 185 -300ZM185 -460C185 -430 210 -405 240 -405C270 -405 295 -430 295 -460C295 -490 270 -515 240 -515C210 -515 185 -490 185 -460ZM185 -620C185 -590 210 -565 240 -565C270 -565 295 -590 295 -620C295 -650 270 -675 240 -675C210 -675 185 -650 185 -620ZM195 -136V-140C195 -151 199 -162 206 -170H215L221 -162C219 -149 215 -151 215 -140C213 -134 208 -131 202 -130ZM195 -296V-300C195 -311 199 -322 206 -330H215L221 -322C219 -309 215 -311 215 -300C213 -294 208 -291 202 -290ZM195 -456V-460C195 -471 199 -482 206 -490H215L221 -482C219 -469 215 -471 215 -460C213 -454 208 -451 202 -450ZM195 -616V-620C195 -631 199 -642 206 -650H215L221 -642C219 -629 215 -631 215 -620C213 -614 208 -611 202 -610ZM201 -117L204 -126L213 -129L219 -126C223 -121 227 -118 233 -116L238 -111V-101L230 -96C218 -99 208 -107 201 -117ZM201 -277L204 -286L213 -289L219 -286C223 -281 227 -278 233 -276L238 -271V-261L230 -256C218 -259 208 -267 201 -277ZM201 -437L204 -446L213 -449L219 -446C223 -441 227 -438 233 -436L238 -431V-421L230 -416C218 -419 208 -427 201 -437ZM201 -597L204 -606L213 -609L219 -606C223 -601 227 -598 233 -596L238 -591V-581L230 -576C218 -579 208 -587 201 -597ZM219 -173L222 -181C228 -184 234 -185 240 -185C246 -185 252 -184 258 -181L261 -173L255 -165L248 -164C246 -165 243 -165 240 -165C237 -165 234 -165 232 -164L225 -165ZM219 -333L222 -341C228 -344 234 -345 240 -345C246 -345 252 -344 258 -341L261 -333L255 -325L248 -324C246 -325 243 -325 240 -325C237 -325 234 -325 232 -324L225 -325ZM219 -493L222 -501C228 -504 234 -505 240 -505C246 -505 252 -504 258 -501L261 -493L255 -485L248 -484C246 -485 243 -485 240 -485C237 -485 234 -485 232 -484L225 -485ZM219 -653L222 -661C228 -664 234 -665 240 -665C246 -665 252 -664 258 -661L261 -653L255 -645L248 -644C246 -645 243 -645 240 -645C237 -645 234 -645 232 -644L225 -645ZM225 -140C225 -148 232 -155 240 -155C248 -155 255 -148 255 -140C255 -132 248 -125 240 -125C232 -125 225 -132 225 -140ZM225 -300C225 -308 232 -315 240 -315C248 -315 255 -308 255 -300C255 -292 248 -285 240 -285C232 -285 225 -292 225 -300ZM225 -460C225 -468 232 -475 240 -475C248 -475 255 -468 255 -460C255 -452 248 -445 240 -445C232 -445 225 -452 225 -460ZM225 -620C225 -628 232 -635 240 -635C248 -635 255 -628 255 -620C255 -612 248 -605 240 -605C232 -605 225 -612 225 -620ZM235 -140C235 -137 237 -135 240 -135C243 -135 245 -137 245 -140C245 -143 243 -145 240 -145C237 -145 235 -143 235 -140ZM235 -300C235 -297 237 -295 240 -295C243 -295 245 -297 245 -300C245 -303 243 -305 240 -305C237 -305 235 -303 235 -300ZM235 -460C235 -457 237 -455 240 -455C243 -455 245 -457 245 -460C245 -463 243 -465 240 -465C237 -465 235 -463 235 -460ZM235 -620C235 -617 237 -615 240 -615C243 -615 245 -617 245 -620C245 -623 243 -625 240 -625C237 -625 235 -623 235 -620ZM242 -101V-111C244 -113 262 -127 267 -129L276 -126L279 -117C272 -107 262 -99 250 -96ZM242 -261V-271C244 -273 262 -287 267 -289L276 -286L279 -277C272 -267 262 -259 250 -256ZM242 -421V-431C244 -433 262 -447 267 -449L276 -446L279 -437C272 -427 262 -419 250 -416ZM242 -581V-591C244 -593 262 -607 267 -609L276 -606L279 -597C272 -587 262 -579 250 -576ZM259 -162L265 -170H274C281 -162 285 -151 285 -140V-136L278 -130L269 -133L265 -140C265 -151 261 -149 259 -162ZM259 -322L265 -330H274C281 -322 285 -311 285 -300V-296L278 -290L269 -293L265 -300C265 -311 261 -309 259 -322ZM259 -482L265 -490H274C281 -482 285 -471 285 -460V-456L278 -450L269 -453L265 -460C265 -471 261 -469 259 -482ZM259 -642L265 -650H274C281 -642 285 -631 285 -620V-616L278 -610L269 -613L265 -620C265 -631 261 -629 259 -642ZM281 -220C298 -229 311 -242 320 -258C329 -242 342 -229 359 -220C342 -211 329 -198 320 -182C311 -198 298 -211 281 -220ZM281 -380C298 -389 311 -402 320 -418C329 -402 342 -389 359 -380C342 -371 329 -358 320 -342C311 -358 298 -371 281 -380ZM281 -540C298 -549 311 -562 320 -578C329 -562 342 -549 359 -540C342 -531 329 -518 320 -502C311 -518 298 -531 281 -540ZM330 -140C330 -179 361 -210 400 -210C439 -210 470 -179 470 -140C470 -101 439 -70 400 -70C361 -70 330 -101 330 -140ZM330 -300C330 -339 361 -370 400 -370C439 -370 470 -339 470 -300C470 -261 439 -230 400 -230C361 -230 330 -261 330 -300ZM330 -460C330 -499 361 -530 400 -530C439 -530 470 -499 470 -460C470 -421 439 -390 400 -390C361 -390 330 -421 330 -460ZM330 -620C330 -659 361 -690 400 -690C439 -690 470 -659 470 -620C470 -581 439 -550 400 -550C361 -550 330 -581 330 -620ZM345 -140C345 -110 370 -85 400 -85C430 -85 455 -110 455 -140C455 -170 430 -195 400 -195C370 -195 345 -170 345 -140ZM345 -300C345 -270 370 -245 400 -245C430 -245 455 -270 455 -300C455 -330 430 -355 400 -355C370 -355 345 -330 345 -300ZM345 -460C345 -430 370 -405 400 -405C430 -405 455 -430 455 -460C455 -490 430 -515 400 -515C370 -515 345 -490 345 -460ZM345 -620C345 -590 370 -565 400 -565C430 -565 455 -590 455 -620C455 -650 430 -675 400 -675C370 -675 345 -650 345 -620ZM355 -136V-140C355 -151 359 -162 366 -170H375L381 -162C379 -149 375 -151 375 -140C373 -134 368 -131 362 -130ZM355 -296V-300C355 -311 359 -322 366 -330H375L381 -322C379 -309 375 -311 375 -300C373 -294 368 -291 362 -290ZM355 -456V-460C355 -471 359 -482 366 -490H375L381 -482C379 -469 375 -471 375 -460C373 -454 368 -451 362 -450ZM355 -616V-620C355 -631 359 -642 366 -650H375L381 -642C379 -629 375 -631 375 -620C373 -614 368 -611 362 -610ZM361 -117L364 -126L373 -129L379 -126C383 -121 387 -118 393 -116L398 -111V-101L390 -96C378 -99 368 -107 361 -117ZM361 -277L364 -286L373 -289L379 -286C383 -281 387 -278 393 -276L398 -271V-261L390 -256C378 -259 368 -267 361 -277ZM361 -437L364 -446L373 -449L379 -446C383 -441 387 -438 393 -436L398 -431V-421L390 -416C378 -419 368 -427 361 -437ZM361 -597L364 -606L373 -609L379 -606C383 -601 387 -598 393 -596L398 -591V-581L390 -576C378 -579 368 -587 361 -597ZM379 -173L382 -181C388 -184 394 -185 400 -185C406 -185 412 -184 418 -181L421 -173L415 -165L408 -164C406 -165 403 -165 400 -165C397 -165 394 -165 392 -164L385 -165ZM379 -333L382 -341C388 -344 394 -345 400 -345C406 -345 412 -344 418 -341L421 -333L415 -325L408 -324C406 -325 403 -325 400 -325C397 -325 394 -325 392 -324L385 -325ZM379 -493L382 -501C388 -504 394 -505 400 -505C406 -505 412 -504 418 -501L421 -493L415 -485L408 -484C406 -485 403 -485 400 -485C397 -485 394 -485 392 -484L385 -485ZM379 -653L382 -661C388 -664 394 -665 400 -665C406 -665 412 -664 418 -661L421 -653L415 -645L408 -644C406 -645 403 -645 400 -645C397 -645 394 -645 392 -644L385 -645ZM385 -140C385 -148 392 -155 400 -155C408 -155 415 -148 415 -140C415 -132 408 -125 400 -125C392 -125 385 -132 385 -140ZM385 -300C385 -308 392 -315 400 -315C408 -315 415 -308 415 -300C415 -292 408 -285 400 -285C392 -285 385 -292 385 -300ZM385 -460C385 -468 392 -475 400 -475C408 -475 415 -468 415 -460C415 -452 408 -445 400 -445C392 -445 385 -452 385 -460ZM385 -620C385 -628 392 -635 400 -635C408 -635 415 -628 415 -620C415 -612 408 -605 400 -605C392 -605 385 -612 385 -620ZM395 -140C395 -137 397 -135 400 -135C403 -135 405 -137 405 -140C405 -143 403 -145 400 -145C397 -145 395 -143 395 -140ZM395 -300C395 -297 397 -295 400 -295C403 -295 405 -297 405 -300C405 -303 403 -305 400 -305C397 -305 395 -303 395 -300ZM395 -460C395 -457 397 -455 400 -455C403 -455 405 -457 405 -460C405 -463 403 -465 400 -465C397 -465 395 -463 395 -460ZM395 -620C395 -617 397 -615 400 -615C403 -615 405 -617 405 -620C405 -623 403 -625 400 -625C397 -625 395 -623 395 -620ZM402 -101V-111C404 -113 422 -127 427 -129L436 -126L439 -117C432 -107 422 -99 410 -96ZM402 -261V-271C404 -273 422 -287 427 -289L436 -286L439 -277C432 -267 422 -259 410 -256ZM402 -421V-431C404 -433 422 -447 427 -449L436 -446L439 -437C432 -427 422 -419 410 -416ZM402 -581V-591C404 -593 422 -607 427 -609L436 -606L439 -597C432 -587 422 -579 410 -576ZM419 -162L425 -170H434C441 -162 445 -151 445 -140V-136L438 -130L429 -133L425 -140C425 -151 421 -149 419 -162ZM419 -322L425 -330H434C441 -322 445 -311 445 -300V-296L438 -290L429 -293L425 -300C425 -311 421 -309 419 -322ZM419 -482L425 -490H434C441 -482 445 -471 445 -460V-456L438 -450L429 -453L425 -460C425 -471 421 -469 419 -482ZM419 -642L425 -650H434C441 -642 445 -631 445 -620V-616L438 -610L429 -613L425 -620C425 -631 421 -629 419 -642Z"></path>
  </g>
</svg>