<svg xmlns="http://www.w3.org/2000/svg" version="1.1" xmlns:xlink="http://www.w3.org/1999/xlink"
  width="469.800000" height="49.800000" viewBox="0 -830 7830 830">
  <g id="s8">
    <path transform="translate(-30, -35)" fill="#000000"
      d="M90 35H550C583 35 610 8 610 -25V-735C610 -768 583 -795 550 -795H90C57 -795 30 -768 30 -735V-25C30 8 57 35 90 35ZM60 -25V-735C60 -752 73 -765 90 -765H550C567 -765 580 -752 580 -735V-25C580 -8 567 5 550 5H90C73 5 60 -8 60 -25ZM104 -70C104 -56 116 -47 130 -47C146 -47 147 -56 165 -56C183 -56 184 -47 200 -47C214 -47 226 -56 226 -70C226 -80 219 -86 211 -91C205 -97 198 -102 198 -110V-157C198 -168 223 -181 223 -200C223 -219 198 -232 198 -243V-264L227 -229C234 -221 226 -208 236 -196C244 -186 260 -191 267 -182L282 -165C282 -151 259 -148 259 -131C259 -117 272 -106 285 -106C301 -106 301 -118 320 -118C339 -118 339 -106 355 -106C368 -106 381 -117 381 -131C381 -148 358 -151 358 -165L374 -182C380 -191 396 -186 404 -196C414 -208 406 -221 414 -229L442 -264V-243C442 -232 417 -219 417 -200C417 -181 442 -168 442 -157V-110C442 -102 435 -97 429 -91C421 -86 414 -80 414 -70C414 -56 426 -47 440 -47C456 -47 457 -56 475 -56C493 -56 494 -47 510 -47C524 -47 536 -56 536 -70C536 -80 529 -86 521 -91C515 -97 508 -102 508 -110V-157C508 -168 533 -181 533 -200C533 -219 508 -232 508 -243V-291C508 -299 515 -304 521 -310C529 -315 536 -321 536 -331C536 -347 520 -354 513 -354C500 -354 498 -368 475 -368C452 -368 450 -354 437 -354C430 -354 414 -347 414 -331C414 -328 415 -324 416 -321L370 -267C363 -258 347 -263 339 -253C329 -241 337 -228 330 -219L321 -210H319L311 -219C303 -228 311 -241 301 -253C293 -263 277 -258 270 -267L223 -322C224 -325 226 -328 226 -331C226 -347 210 -354 203 -354C190 -354 188 -368 165 -368C142 -368 140 -354 127 -354C120 -354 104 -347 104 -331C104 -321 111 -315 119 -310C125 -304 132 -299 132 -291V-243C132 -232 107 -219 107 -200C107 -181 132 -168 132 -157V-110C132 -102 125 -97 119 -91C111 -86 104 -80 104 -70ZM104 -425C104 -411 116 -402 130 -402C146 -402 147 -411 165 -411C183 -411 184 -402 200 -402C214 -402 226 -411 226 -425C226 -428 226 -429 223 -434L270 -489C277 -498 293 -493 301 -503C311 -515 303 -528 310 -537L320 -547L329 -537C336 -528 329 -515 339 -503C347 -493 363 -498 370 -489L417 -434C417 -433 414 -431 414 -425C414 -411 426 -402 440 -402C456 -402 457 -411 475 -411C493 -411 494 -402 510 -402C524 -402 536 -411 536 -425C536 -435 529 -441 521 -446C515 -452 508 -457 508 -465V-512C508 -523 533 -536 533 -555C533 -574 508 -587 508 -598V-646C508 -654 515 -659 521 -665C529 -670 536 -676 536 -686C536 -702 520 -709 513 -709C500 -709 498 -723 475 -723C452 -723 450 -709 437 -709C430 -709 414 -702 414 -686C414 -676 421 -670 429 -665C435 -659 442 -654 442 -646V-598C442 -587 417 -574 417 -555C417 -536 442 -523 442 -512V-492L413 -527C406 -535 414 -548 404 -560C396 -570 380 -565 373 -574L358 -591C358 -605 381 -608 381 -625C381 -639 368 -650 355 -650C339 -650 339 -638 320 -638C301 -638 301 -650 285 -650C272 -650 259 -639 259 -625C259 -608 282 -605 282 -591L266 -574C260 -565 244 -570 236 -560C226 -548 234 -535 226 -527L198 -492V-512C198 -523 223 -536 223 -555C223 -574 198 -587 198 -598V-646C198 -654 205 -659 211 -665C219 -670 226 -676 226 -686C226 -702 210 -709 203 -709C190 -709 188 -723 165 -723C142 -723 140 -709 127 -709C120 -709 104 -702 104 -686C104 -676 111 -670 119 -665C125 -659 132 -654 132 -646V-598C132 -587 107 -574 107 -555C107 -536 132 -523 132 -512V-465C132 -457 125 -452 119 -446C111 -441 104 -435 104 -425ZM132 -188C132 -192 136 -195 142 -195H188C194 -195 198 -192 198 -188C198 -184 194 -180 188 -180H142C136 -180 132 -183 132 -188ZM132 -213C132 -217 136 -220 142 -220H188C194 -220 198 -217 198 -213C198 -209 194 -205 188 -205H142C136 -205 132 -208 132 -213ZM132 -543C132 -547 136 -550 142 -550H188C194 -550 198 -547 198 -543C198 -539 194 -535 188 -535H142C136 -535 132 -538 132 -543ZM132 -568C132 -572 136 -575 142 -575H188C194 -575 198 -572 198 -568C198 -564 194 -560 188 -560H142C136 -560 132 -563 132 -568ZM140 -330C140 -342 151 -352 165 -352C179 -352 190 -342 190 -330C190 -323 186 -316 180 -312V-230H150V-312C144 -316 140 -323 140 -330ZM140 -685C140 -697 151 -707 165 -707C179 -707 190 -697 190 -685C190 -678 186 -671 180 -667V-585H150V-667C144 -671 140 -678 140 -685ZM150 -82V-170H180V-82C180 -74 175 -69 165 -69C155 -69 150 -74 150 -82ZM150 -437V-525H180V-437C180 -429 175 -424 165 -424C155 -424 150 -429 150 -437ZM200 -288V-291C200 -298 206 -303 212 -308L265 -245L248 -231ZM200 -465V-468L248 -525L265 -511L212 -448C206 -453 200 -458 200 -465ZM248 -214C248 -217 250 -219 253 -222L273 -239C275 -241 278 -242 281 -242C284 -242 287 -240 287 -235C287 -233 286 -230 283 -227L263 -210C260 -208 257 -207 255 -207C251 -207 248 -211 248 -214ZM248 -542C248 -545 251 -549 255 -549C257 -549 260 -548 263 -546L283 -529C286 -526 287 -523 287 -521C287 -516 284 -514 281 -514C278 -514 275 -515 273 -517L253 -534C250 -537 248 -539 248 -542ZM271 -204L287 -218L320 -178L353 -218L369 -204L331 -159V-137C331 -132 328 -127 320 -127C312 -127 309 -132 309 -137V-159ZM271 -552L309 -597V-619C309 -624 312 -629 320 -629C328 -629 331 -624 331 -619V-597L369 -552L353 -538L320 -578L287 -538ZM353 -235C353 -240 356 -242 359 -242C362 -242 365 -241 367 -239L387 -222C390 -219 392 -217 392 -214C392 -211 389 -207 385 -207C383 -207 380 -208 377 -210L357 -227C354 -230 353 -233 353 -235ZM353 -521C353 -523 354 -526 357 -529L377 -546C380 -548 383 -549 385 -549C389 -549 392 -545 392 -542C392 -539 390 -537 387 -534L367 -517C365 -515 362 -514 359 -514C356 -514 353 -516 353 -521ZM375 -245L428 -308C434 -303 440 -298 440 -291V-288L392 -231ZM375 -511L392 -525L440 -468V-465C440 -458 434 -453 428 -448ZM442 -188C442 -192 446 -195 452 -195H498C504 -195 508 -192 508 -188C508 -184 504 -180 498 -180H452C446 -180 442 -183 442 -188ZM442 -213C442 -217 446 -220 452 -220H498C504 -220 508 -217 508 -213C508 -209 504 -205 498 -205H452C446 -205 442 -208 442 -213ZM442 -543C442 -547 446 -550 452 -550H498C504 -550 508 -547 508 -543C508 -539 504 -535 498 -535H452C446 -535 442 -538 442 -543ZM442 -568C442 -572 446 -575 452 -575H498C504 -575 508 -572 508 -568C508 -564 504 -560 498 -560H452C446 -560 442 -563 442 -568ZM450 -330C450 -342 461 -352 475 -352C489 -352 500 -342 500 -330C500 -323 496 -316 490 -312V-230H460V-312C454 -316 450 -323 450 -330ZM450 -685C450 -697 461 -707 475 -707C489 -707 500 -697 500 -685C500 -678 496 -671 490 -667V-585H460V-667C454 -671 450 -678 450 -685ZM460 -82V-170H490V-82C490 -74 485 -69 475 -69C465 -69 460 -74 460 -82ZM460 -437V-525H490V-437C490 -429 485 -424 475 -424C465 -424 460 -429 460 -437Z"></path>
  </g>
</svg>