<svg xmlns="http://www.w3.org/2000/svg" version="1.1" xmlns:xlink="http://www.w3.org/1999/xlink"
  width="469.800000" height="49.800000" viewBox="0 -830 7830 830">
  <g id="p9">
    <path transform="translate(-30, -35)" fill="#000000"
      d="M90 35H550C583 35 610 8 610 -25V-735C610 -768 583 -795 550 -795H90C57 -795 30 -768 30 -735V-25C30 8 57 35 90 35ZM60 -25V-735C60 -752 73 -765 90 -765H550C567 -765 580 -752 580 -735V-25C580 -8 567 5 550 5H90C73 5 60 -8 60 -25ZM100 -155C100 -111 136 -75 180 -75C210 -75 236 -92 250 -116C264 -92 290 -75 320 -75C350 -75 376 -92 390 -116C404 -92 430 -75 460 -75C504 -75 540 -111 540 -155C540 -199 504 -235 460 -235C430 -235 404 -218 390 -194C376 -218 350 -235 320 -235C290 -235 264 -218 250 -194C236 -218 210 -235 180 -235C136 -235 100 -199 100 -155ZM100 -380C100 -336 136 -300 180 -300C210 -300 236 -317 250 -341C264 -317 290 -300 320 -300C350 -300 376 -317 390 -341C404 -317 430 -300 460 -300C504 -300 540 -336 540 -380C540 -424 504 -460 460 -460C430 -460 404 -443 390 -419C376 -443 350 -460 320 -460C290 -460 264 -443 250 -419C236 -443 210 -460 180 -460C136 -460 100 -424 100 -380ZM100 -605C100 -561 136 -525 180 -525C210 -525 236 -542 250 -566C264 -542 290 -525 320 -525C350 -525 376 -542 390 -566C404 -542 430 -525 460 -525C504 -525 540 -561 540 -605C540 -649 504 -685 460 -685C430 -685 404 -668 390 -644C376 -668 350 -685 320 -685C290 -685 264 -668 250 -644C236 -668 210 -685 180 -685C136 -685 100 -649 100 -605ZM120 -155C120 -188 147 -215 180 -215C213 -215 240 -188 240 -155C240 -122 213 -95 180 -95C147 -95 120 -122 120 -155ZM120 -380C120 -413 147 -440 180 -440C213 -440 240 -413 240 -380C240 -347 213 -320 180 -320C147 -320 120 -347 120 -380ZM120 -605C120 -638 147 -665 180 -665C213 -665 240 -638 240 -605C240 -572 213 -545 180 -545C147 -545 120 -572 120 -605ZM130 -155C130 -127 152 -105 180 -105C208 -105 230 -127 230 -155C230 -183 208 -205 180 -205C152 -205 130 -183 130 -155ZM130 -380C130 -352 152 -330 180 -330C208 -330 230 -352 230 -380C230 -408 208 -430 180 -430C152 -430 130 -408 130 -380ZM130 -605C130 -577 152 -555 180 -555C208 -555 230 -577 230 -605C230 -633 208 -655 180 -655C152 -655 130 -633 130 -605ZM135 -152V-155C135 -166 139 -176 146 -184L155 -185C158 -182 161 -178 161 -171C157 -167 155 -162 155 -156C152 -150 148 -146 142 -145ZM135 -377V-380C135 -391 139 -401 146 -409L155 -410C158 -407 161 -403 161 -396C157 -392 155 -387 155 -381C152 -375 148 -371 142 -370ZM135 -602V-605C135 -616 139 -626 146 -634L155 -635C158 -632 161 -628 161 -621C157 -617 155 -612 155 -606C152 -600 148 -596 142 -595ZM142 -131L144 -141L151 -144L159 -142C162 -136 168 -132 174 -131L178 -124V-116L169 -112C158 -114 148 -122 142 -131ZM142 -356L144 -366L151 -369L159 -367C162 -361 168 -357 174 -356L178 -349V-341L169 -337C158 -339 148 -347 142 -356ZM142 -581L144 -591L151 -594L159 -592C162 -586 168 -582 174 -581L178 -574V-566L169 -562C158 -564 148 -572 142 -581ZM159 -188L163 -197C168 -199 174 -200 180 -200C186 -200 192 -199 197 -197L201 -188C199 -183 195 -179 189 -178C186 -179 183 -180 180 -180C177 -180 174 -179 171 -178C165 -179 161 -183 159 -188ZM159 -413L163 -422C168 -424 174 -425 180 -425C186 -425 192 -424 197 -422L201 -413C199 -408 195 -404 189 -403C186 -404 183 -405 180 -405C177 -405 174 -404 171 -403C165 -404 161 -408 159 -413ZM159 -638L163 -647C168 -649 174 -650 180 -650C186 -650 192 -649 197 -647L201 -638C199 -633 195 -629 189 -628C186 -629 183 -630 180 -630C177 -630 174 -629 171 -628C165 -629 161 -633 159 -638ZM160 -155C160 -166 169 -175 180 -175C191 -175 200 -166 200 -155C200 -144 191 -135 180 -135C169 -135 160 -144 160 -155ZM160 -380C160 -391 169 -400 180 -400C191 -400 200 -391 200 -380C200 -369 191 -360 180 -360C169 -360 160 -369 160 -380ZM160 -605C160 -616 169 -625 180 -625C191 -625 200 -616 200 -605C200 -594 191 -585 180 -585C169 -585 160 -594 160 -605ZM170 -155C170 -149 174 -145 180 -145C186 -145 190 -149 190 -155C190 -161 186 -165 180 -165C174 -165 170 -161 170 -155ZM170 -380C170 -374 174 -370 180 -370C186 -370 190 -374 190 -380C190 -386 186 -390 180 -390C174 -390 170 -386 170 -380ZM170 -605C170 -599 174 -595 180 -595C186 -595 190 -599 190 -605C190 -611 186 -615 180 -615C174 -615 170 -611 170 -605ZM182 -116V-124L186 -131C192 -132 198 -136 201 -142L209 -144L216 -141L218 -131C212 -122 202 -114 191 -112ZM182 -341V-349L186 -356C192 -357 198 -361 201 -367L209 -369L216 -366L218 -356C212 -347 202 -339 191 -337ZM182 -566V-574L186 -581C192 -582 198 -586 201 -592L209 -594L216 -591L218 -581C212 -572 202 -564 191 -562ZM199 -171C199 -178 202 -182 205 -185L214 -184C221 -176 225 -166 225 -155V-152L218 -145C212 -146 208 -150 205 -156C205 -162 203 -167 199 -171ZM199 -396C199 -403 202 -407 205 -410L214 -409C221 -401 225 -391 225 -380V-377L218 -370C212 -371 208 -375 205 -381C205 -387 203 -392 199 -396ZM199 -621C199 -628 202 -632 205 -635L214 -634C221 -626 225 -616 225 -605V-602L218 -595C212 -596 208 -600 205 -606C205 -612 203 -617 199 -621ZM260 -155C260 -188 287 -215 320 -215C353 -215 380 -188 380 -155C380 -122 353 -95 320 -95C287 -95 260 -122 260 -155ZM260 -380C260 -413 287 -440 320 -440C353 -440 380 -413 380 -380C380 -347 353 -320 320 -320C287 -320 260 -347 260 -380ZM260 -605C260 -638 287 -665 320 -665C353 -665 380 -638 380 -605C380 -572 353 -545 320 -545C287 -545 260 -572 260 -605ZM270 -155C270 -127 292 -105 320 -105C348 -105 370 -127 370 -155C370 -183 348 -205 320 -205C292 -205 270 -183 270 -155ZM270 -380C270 -352 292 -330 320 -330C348 -330 370 -352 370 -380C370 -408 348 -430 320 -430C292 -430 270 -408 270 -380ZM270 -605C270 -577 292 -555 320 -555C348 -555 370 -577 370 -605C370 -633 348 -655 320 -655C292 -655 270 -633 270 -605ZM275 -152V-155C275 -166 279 -176 286 -184L295 -185C298 -182 301 -178 301 -171C297 -167 295 -162 295 -156C292 -150 288 -146 282 -145ZM275 -377V-380C275 -391 279 -401 286 -409L295 -410C298 -407 301 -403 301 -396C297 -392 295 -387 295 -381C292 -375 288 -371 282 -370ZM275 -602V-605C275 -616 279 -626 286 -634L295 -635C298 -632 301 -628 301 -621C297 -617 295 -612 295 -606C292 -600 288 -596 282 -595ZM282 -131L284 -141L291 -144L299 -142C302 -136 308 -132 314 -131L318 -124V-116L309 -112C298 -114 288 -122 282 -131ZM282 -356L284 -366L291 -369L299 -367C302 -361 308 -357 314 -356L318 -349V-341L309 -337C298 -339 288 -347 282 -356ZM282 -581L284 -591L291 -594L299 -592C302 -586 308 -582 314 -581L318 -574V-566L309 -562C298 -564 288 -572 282 -581ZM299 -188L303 -197C308 -199 314 -200 320 -200C326 -200 332 -199 337 -197L341 -188C339 -183 335 -179 329 -178C326 -179 323 -180 320 -180C317 -180 314 -179 311 -178C305 -179 301 -183 299 -188ZM299 -413L303 -422C308 -424 314 -425 320 -425C326 -425 332 -424 337 -422L341 -413C339 -408 335 -404 329 -403C326 -404 323 -405 320 -405C317 -405 314 -404 311 -403C305 -404 301 -408 299 -413ZM299 -638L303 -647C308 -649 314 -650 320 -650C326 -650 332 -649 337 -647L341 -638C339 -633 335 -629 329 -628C326 -629 323 -630 320 -630C317 -630 314 -629 311 -628C305 -629 301 -633 299 -638ZM300 -155C300 -166 309 -175 320 -175C331 -175 340 -166 340 -155C340 -144 331 -135 320 -135C309 -135 300 -144 300 -155ZM300 -380C300 -391 309 -400 320 -400C331 -400 340 -391 340 -380C340 -369 331 -360 320 -360C309 -360 300 -369 300 -380ZM300 -605C300 -616 309 -625 320 -625C331 -625 340 -616 340 -605C340 -594 331 -585 320 -585C309 -585 300 -594 300 -605ZM310 -155C310 -149 314 -145 320 -145C326 -145 330 -149 330 -155C330 -161 326 -165 320 -165C314 -165 310 -161 310 -155ZM310 -380C310 -374 314 -370 320 -370C326 -370 330 -374 330 -380C330 -386 326 -390 320 -390C314 -390 310 -386 310 -380ZM310 -605C310 -599 314 -595 320 -595C326 -595 330 -599 330 -605C330 -611 326 -615 320 -615C314 -615 310 -611 310 -605ZM322 -116V-124L326 -131C332 -132 338 -136 341 -142L349 -144L356 -141L358 -131C352 -122 342 -114 331 -112ZM322 -341V-349L326 -356C332 -357 338 -361 341 -367L349 -369L356 -366L358 -356C352 -347 342 -339 331 -337ZM322 -566V-574L326 -581C332 -582 338 -586 341 -592L349 -594L356 -591L358 -581C352 -572 342 -564 331 -562ZM339 -171C339 -178 342 -182 345 -185L354 -184C361 -176 365 -166 365 -155V-152L358 -145C352 -146 348 -150 345 -156C345 -162 343 -167 339 -171ZM339 -396C339 -403 342 -407 345 -410L354 -409C361 -401 365 -391 365 -380V-377L358 -370C352 -371 348 -375 345 -381C345 -387 343 -392 339 -396ZM339 -621C339 -628 342 -632 345 -635L354 -634C361 -626 365 -616 365 -605V-602L358 -595C352 -596 348 -600 345 -606C345 -612 343 -617 339 -621ZM400 -155C400 -188 427 -215 460 -215C493 -215 520 -188 520 -155C520 -122 493 -95 460 -95C427 -95 400 -122 400 -155ZM400 -380C400 -413 427 -440 460 -440C493 -440 520 -413 520 -380C520 -347 493 -320 460 -320C427 -320 400 -347 400 -380ZM400 -605C400 -638 427 -665 460 -665C493 -665 520 -638 520 -605C520 -572 493 -545 460 -545C427 -545 400 -572 400 -605ZM410 -155C410 -127 432 -105 460 -105C488 -105 510 -127 510 -155C510 -183 488 -205 460 -205C432 -205 410 -183 410 -155ZM410 -380C410 -352 432 -330 460 -330C488 -330 510 -352 510 -380C510 -408 488 -430 460 -430C432 -430 410 -408 410 -380ZM410 -605C410 -577 432 -555 460 -555C488 -555 510 -577 510 -605C510 -633 488 -655 460 -655C432 -655 410 -633 410 -605ZM415 -152V-155C415 -166 419 -176 426 -184L435 -185C438 -182 441 -178 441 -171C437 -167 435 -162 435 -156C432 -150 428 -146 422 -145ZM415 -377V-380C415 -391 419 -401 426 -409L435 -410C438 -407 441 -403 441 -396C437 -392 435 -387 435 -381C432 -375 428 -371 422 -370ZM415 -602V-605C415 -616 419 -626 426 -634L435 -635C438 -632 441 -628 441 -621C437 -617 435 -612 435 -606C432 -600 428 -596 422 -595ZM422 -131L424 -141L431 -144L439 -142C442 -136 448 -132 454 -131L458 -124V-116L449 -112C438 -114 428 -122 422 -131ZM422 -356L424 -366L431 -369L439 -367C442 -361 448 -357 454 -356L458 -349V-341L449 -337C438 -339 428 -347 422 -356ZM422 -581L424 -591L431 -594L439 -592C442 -586 448 -582 454 -581L458 -574V-566L449 -562C438 -564 428 -572 422 -581ZM439 -188L443 -197C448 -199 454 -200 460 -200C466 -200 472 -199 477 -197L481 -188C479 -183 475 -179 469 -178C466 -179 463 -180 460 -180C457 -180 454 -179 451 -178C445 -179 441 -183 439 -188ZM439 -413L443 -422C448 -424 454 -425 460 -425C466 -425 472 -424 477 -422L481 -413C479 -408 475 -404 469 -403C466 -404 463 -405 460 -405C457 -405 454 -404 451 -403C445 -404 441 -408 439 -413ZM439 -638L443 -647C448 -649 454 -650 460 -650C466 -650 472 -649 477 -647L481 -638C479 -633 475 -629 469 -628C466 -629 463 -630 460 -630C457 -630 454 -629 451 -628C445 -629 441 -633 439 -638ZM440 -155C440 -166 449 -175 460 -175C471 -175 480 -166 480 -155C480 -144 471 -135 460 -135C449 -135 440 -144 440 -155ZM440 -380C440 -391 449 -400 460 -400C471 -400 480 -391 480 -380C480 -369 471 -360 460 -360C449 -360 440 -369 440 -380ZM440 -605C440 -616 449 -625 460 -625C471 -625 480 -616 480 -605C480 -594 471 -585 460 -585C449 -585 440 -594 440 -605ZM450 -155C450 -149 454 -145 460 -145C466 -145 470 -149 470 -155C470 -161 466 -165 460 -165C454 -165 450 -161 450 -155ZM450 -380C450 -374 454 -370 460 -370C466 -370 470 -374 470 -380C470 -386 466 -390 460 -390C454 -390 450 -386 450 -380ZM450 -605C450 -599 454 -595 460 -595C466 -595 470 -599 470 -605C470 -611 466 -615 460 -615C454 -615 450 -611 450 -605ZM462 -116V-124L466 -131C472 -132 478 -136 481 -142L489 -144L496 -141L498 -131C492 -122 482 -114 471 -112ZM462 -341V-349L466 -356C472 -357 478 -361 481 -367L489 -369L496 -366L498 -356C492 -347 482 -339 471 -337ZM462 -566V-574L466 -581C472 -582 478 -586 481 -592L489 -594L496 -591L498 -581C492 -572 482 -564 471 -562ZM479 -171C479 -178 482 -182 485 -185L494 -184C501 -176 505 -166 505 -155V-152L498 -145C492 -146 488 -150 485 -156C485 -162 483 -167 479 -171ZM479 -396C479 -403 482 -407 485 -410L494 -409C501 -401 505 -391 505 -380V-377L498 -370C492 -371 488 -375 485 -381C485 -387 483 -392 479 -396ZM479 -621C479 -628 482 -632 485 -635L494 -634C501 -626 505 -616 505 -605V-602L498 -595C492 -596 488 -600 485 -606C485 -612 483 -617 479 -621Z"></path>
  </g>
</svg>